M48
; DRILL file {KiCad 6.0.10-86aedd382b~118~ubuntu18.04.1} date Thu 18 Jan 2024 17:26:39 GMT
; FORMAT={-:-/ absolute / metric / decimal}
; #@! TF.CreationDate,2024-01-18T17:26:39+00:00
; #@! TF.GenerationSoftware,Kicad,Pcbnew,6.0.10-86aedd382b~118~ubuntu18.04.1
; #@! TF.FileFunction,Plated,1,2,PTH
FMAT,2
METRIC
; #@! TA.AperFunction,Plated,PTH,ViaDrill
T1C0.500
; #@! TA.AperFunction,Plated,PTH,ComponentDrill
T2C0.800
; #@! TA.AperFunction,Plated,PTH,ComponentDrill
T3C1.000
%
G90
G05
T1
X105.285Y-129.665
X105.41Y-109.855
X114.5Y-118.88
X115.712Y-117.917
X115.75Y-122.917
X117.0Y-129.38
X119.6Y-110.38
X119.634Y-108.458
X121.5Y-115.38
X121.5Y-121.63
X121.5Y-124.968
X121.88Y-117.88
X122.25Y-119.88
X122.25Y-123.38
X122.5Y-128.63
X123.19Y-115.38
X123.19Y-124.968
X123.952Y-118.872
X123.952Y-121.92
X125.25Y-109.38
X125.25Y-128.63
X125.476Y-120.396
X125.73Y-115.38
X125.73Y-124.968
X127.0Y-118.872
X127.0Y-121.92
X128.0Y-128.63
X128.27Y-115.38
X128.27Y-124.968
X128.524Y-120.396
X129.8Y-109.38
X130.048Y-118.872
X130.048Y-121.92
X130.81Y-115.38
X130.81Y-124.968
X132.13Y-117.38
X132.5Y-115.38
X132.5Y-124.88
X132.8Y-129.38
X132.88Y-120.88
X133.0Y-123.63
X138.5Y-120.605
X140.25Y-117.88
X150.495Y-123.825
T2
X102.87Y-111.76
X102.87Y-127.0
X105.41Y-111.76
X105.41Y-127.0
X107.95Y-111.76
X107.95Y-127.0
X110.49Y-111.76
X110.49Y-127.0
X113.03Y-111.76
X113.03Y-127.0
X115.57Y-111.76
X115.57Y-127.0
X118.11Y-111.76
X118.11Y-127.0
X135.89Y-111.76
X135.89Y-127.0
X138.43Y-111.76
X138.43Y-127.0
X140.97Y-111.76
X140.97Y-127.0
X143.51Y-111.76
X143.51Y-127.0
X146.05Y-111.76
X146.05Y-127.0
X148.59Y-111.76
X148.59Y-127.0
X151.13Y-111.76
X151.13Y-127.0
T3
X102.87Y-114.3
X102.87Y-116.84
X102.87Y-119.38
X102.87Y-121.92
X102.87Y-124.46
X105.41Y-114.3
X105.41Y-116.84
X105.41Y-119.38
X105.41Y-121.92
X105.41Y-124.46
X112.0Y-119.38
T0
M30
