G04 #@! TF.GenerationSoftware,KiCad,Pcbnew,6.0.10-86aedd382b~118~ubuntu18.04.1*
G04 #@! TF.CreationDate,2024-01-19T12:14:25+00:00*
G04 #@! TF.ProjectId,ReTuLaReMake,52655475-4c61-4526-954d-616b652e6b69,rev?*
G04 #@! TF.SameCoordinates,Original*
G04 #@! TF.FileFunction,Soldermask,Bot*
G04 #@! TF.FilePolarity,Negative*
%FSLAX46Y46*%
G04 Gerber Fmt 4.6, Leading zero omitted, Abs format (unit mm)*
G04 Created by KiCad (PCBNEW 6.0.10-86aedd382b~118~ubuntu18.04.1) date 2024-01-19 12:14:25*
%MOMM*%
%LPD*%
G01*
G04 APERTURE LIST*
G04 Aperture macros list*
%AMRoundRect*
0 Rectangle with rounded corners*
0 $1 Rounding radius*
0 $2 $3 $4 $5 $6 $7 $8 $9 X,Y pos of 4 corners*
0 Add a 4 corners polygon primitive as box body*
4,1,4,$2,$3,$4,$5,$6,$7,$8,$9,$2,$3,0*
0 Add four circle primitives for the rounded corners*
1,1,$1+$1,$2,$3*
1,1,$1+$1,$4,$5*
1,1,$1+$1,$6,$7*
1,1,$1+$1,$8,$9*
0 Add four rect primitives between the rounded corners*
20,1,$1+$1,$2,$3,$4,$5,0*
20,1,$1+$1,$4,$5,$6,$7,0*
20,1,$1+$1,$6,$7,$8,$9,0*
20,1,$1+$1,$8,$9,$2,$3,0*%
G04 Aperture macros list end*
%ADD10RoundRect,0.050000X-0.850000X-0.850000X0.850000X-0.850000X0.850000X0.850000X-0.850000X0.850000X0*%
%ADD11O,1.800000X1.800000*%
%ADD12RoundRect,0.300000X0.350000X0.450000X-0.350000X0.450000X-0.350000X-0.450000X0.350000X-0.450000X0*%
%ADD13RoundRect,0.300000X0.450000X-0.350000X0.450000X0.350000X-0.450000X0.350000X-0.450000X-0.350000X0*%
%ADD14RoundRect,0.300000X-0.337500X-0.475000X0.337500X-0.475000X0.337500X0.475000X-0.337500X0.475000X0*%
%ADD15RoundRect,0.300000X-0.350000X-0.450000X0.350000X-0.450000X0.350000X0.450000X-0.350000X0.450000X0*%
%ADD16RoundRect,0.050000X0.800000X-0.800000X0.800000X0.800000X-0.800000X0.800000X-0.800000X-0.800000X0*%
%ADD17O,1.700000X1.700000*%
%ADD18C,0.900000*%
G04 APERTURE END LIST*
D10*
X102870000Y-114300000D03*
D11*
X105410000Y-114300000D03*
X102870000Y-116840000D03*
X105410000Y-116840000D03*
X102870000Y-119380000D03*
X105410000Y-119380000D03*
X102870000Y-121920000D03*
X105410000Y-121920000D03*
X102870000Y-124460000D03*
X105410000Y-124460000D03*
D10*
X112000000Y-119380000D03*
D12*
X128250000Y-129880000D03*
X126250000Y-129880000D03*
D13*
X125730000Y-116000000D03*
X125730000Y-114000000D03*
X133350000Y-116000000D03*
X133350000Y-114000000D03*
D14*
X115555000Y-116510000D03*
X117630000Y-116510000D03*
D13*
X123190000Y-116000000D03*
X123190000Y-114000000D03*
D15*
X126400000Y-109380000D03*
X128400000Y-109380000D03*
D13*
X138430000Y-116000000D03*
X138430000Y-114000000D03*
D12*
X124250000Y-129880000D03*
X122250000Y-129880000D03*
D13*
X130810000Y-116000000D03*
X130810000Y-114000000D03*
X135890000Y-116000000D03*
X135890000Y-114000000D03*
X120650000Y-116000000D03*
X120650000Y-114000000D03*
D12*
X117630000Y-114010000D03*
X115630000Y-114010000D03*
D16*
X151130000Y-111760000D03*
D17*
X148590000Y-111760000D03*
X146050000Y-111760000D03*
X143510000Y-111760000D03*
X140970000Y-111760000D03*
X138430000Y-111760000D03*
X135890000Y-111760000D03*
X133350000Y-111760000D03*
X130810000Y-111760000D03*
X128270000Y-111760000D03*
X125730000Y-111760000D03*
X123190000Y-111760000D03*
X120650000Y-111760000D03*
X118110000Y-111760000D03*
X115570000Y-111760000D03*
X113030000Y-111760000D03*
X110490000Y-111760000D03*
X107950000Y-111760000D03*
X105410000Y-111760000D03*
X102870000Y-111760000D03*
X102870000Y-127000000D03*
X105410000Y-127000000D03*
X107950000Y-127000000D03*
X110490000Y-127000000D03*
X113030000Y-127000000D03*
X115570000Y-127000000D03*
X118110000Y-127000000D03*
X120650000Y-127000000D03*
X123190000Y-127000000D03*
X125730000Y-127000000D03*
X128270000Y-127000000D03*
X130810000Y-127000000D03*
X133350000Y-127000000D03*
X135890000Y-127000000D03*
X138430000Y-127000000D03*
X140970000Y-127000000D03*
X143510000Y-127000000D03*
X146050000Y-127000000D03*
X148590000Y-127000000D03*
X151130000Y-127000000D03*
D13*
X128270000Y-116000000D03*
X128270000Y-114000000D03*
D18*
X125250000Y-128630000D03*
X127000000Y-118872000D03*
X125476000Y-120396000D03*
X123952000Y-118872000D03*
X138500000Y-120605000D03*
X140250000Y-117880000D03*
X127000000Y-121920000D03*
X132800000Y-129380000D03*
X119600000Y-110380000D03*
X133000000Y-123630000D03*
X117000000Y-129380000D03*
X130048000Y-121920000D03*
X129800000Y-109380000D03*
X128524000Y-120396000D03*
X115712500Y-117917500D03*
X123952000Y-121920000D03*
X115750000Y-122917500D03*
X150495000Y-123825000D03*
X130048000Y-118872000D03*
X122250000Y-119880000D03*
X114500000Y-118880000D03*
X121500000Y-121630000D03*
X122250000Y-123380000D03*
X121500000Y-124968000D03*
X123190000Y-124968000D03*
X125730000Y-124968000D03*
X128270000Y-124968000D03*
X130810000Y-124968000D03*
X132500000Y-124880000D03*
X132880000Y-120880000D03*
X132130000Y-117380000D03*
X132539000Y-115189000D03*
X130810000Y-115189000D03*
X128270000Y-115189000D03*
X125730000Y-115189000D03*
X123190000Y-115189000D03*
X121500000Y-115150000D03*
X125250000Y-109380000D03*
X105410000Y-109855000D03*
X119634000Y-108458000D03*
X128000000Y-128630000D03*
X105285000Y-129665000D03*
X122500000Y-128630000D03*
X121880000Y-117880000D03*
G36*
X128188089Y-129038409D02*
G01*
X128187709Y-129039637D01*
X128166504Y-129068875D01*
X128172264Y-129105031D01*
X128202149Y-129126705D01*
X128213253Y-129128014D01*
X128214856Y-129129210D01*
X128214622Y-129131196D01*
X128213019Y-129132000D01*
X127900114Y-129132000D01*
X127831902Y-129140013D01*
X127830065Y-129139222D01*
X127829832Y-129137236D01*
X127830643Y-129136310D01*
X127857152Y-129120476D01*
X127866101Y-129084977D01*
X127847198Y-129053329D01*
X127835459Y-129047348D01*
X127834370Y-129045671D01*
X127835278Y-129043889D01*
X127836963Y-129043657D01*
X127928374Y-129072216D01*
X128055371Y-129074544D01*
X128177918Y-129041134D01*
X128185044Y-129036759D01*
X128187043Y-129036705D01*
X128188089Y-129038409D01*
G37*
G36*
X122428374Y-129072216D02*
G01*
X122555371Y-129074544D01*
X122670697Y-129043103D01*
X122672631Y-129043613D01*
X122673157Y-129045542D01*
X122672447Y-129046614D01*
X122643890Y-129068724D01*
X122639269Y-129105044D01*
X122661824Y-129134174D01*
X122666497Y-129135785D01*
X122667808Y-129137295D01*
X122667157Y-129139186D01*
X122665613Y-129139663D01*
X122599880Y-129132000D01*
X122282806Y-129132000D01*
X122281074Y-129131000D01*
X122281074Y-129129000D01*
X122282041Y-129128152D01*
X122316630Y-129113825D01*
X122330640Y-129080001D01*
X122316505Y-129045874D01*
X122309323Y-129039992D01*
X122306878Y-129038364D01*
X122305990Y-129036572D01*
X122307098Y-129034907D01*
X122308582Y-129034790D01*
X122428374Y-129072216D01*
G37*
G36*
X130904044Y-114649000D02*
G01*
X130904044Y-114651000D01*
X130903077Y-114651848D01*
X130868490Y-114666174D01*
X130854480Y-114699998D01*
X130868553Y-114733976D01*
X130887244Y-114745128D01*
X130888219Y-114746874D01*
X130887194Y-114748591D01*
X130885646Y-114748761D01*
X130876216Y-114745941D01*
X130749202Y-114745165D01*
X130735172Y-114749175D01*
X130733231Y-114748689D01*
X130732682Y-114746767D01*
X130733378Y-114745686D01*
X130761665Y-114723226D01*
X130765841Y-114686854D01*
X130742976Y-114658058D01*
X130719346Y-114651936D01*
X130717921Y-114650534D01*
X130718422Y-114648598D01*
X130719848Y-114648000D01*
X130902312Y-114648000D01*
X130904044Y-114649000D01*
G37*
G36*
X128364044Y-114649000D02*
G01*
X128364044Y-114651000D01*
X128363077Y-114651848D01*
X128328490Y-114666174D01*
X128314480Y-114699998D01*
X128328553Y-114733976D01*
X128347244Y-114745128D01*
X128348219Y-114746874D01*
X128347194Y-114748591D01*
X128345646Y-114748761D01*
X128336216Y-114745941D01*
X128209202Y-114745165D01*
X128195172Y-114749175D01*
X128193231Y-114748689D01*
X128192682Y-114746767D01*
X128193378Y-114745686D01*
X128221665Y-114723226D01*
X128225841Y-114686854D01*
X128202976Y-114658058D01*
X128179346Y-114651936D01*
X128177921Y-114650534D01*
X128178422Y-114648598D01*
X128179848Y-114648000D01*
X128362312Y-114648000D01*
X128364044Y-114649000D01*
G37*
G36*
X125824044Y-114649000D02*
G01*
X125824044Y-114651000D01*
X125823077Y-114651848D01*
X125788490Y-114666174D01*
X125774480Y-114699998D01*
X125788553Y-114733976D01*
X125807244Y-114745128D01*
X125808219Y-114746874D01*
X125807194Y-114748591D01*
X125805646Y-114748761D01*
X125796216Y-114745941D01*
X125669202Y-114745165D01*
X125655172Y-114749175D01*
X125653231Y-114748689D01*
X125652682Y-114746767D01*
X125653378Y-114745686D01*
X125681665Y-114723226D01*
X125685841Y-114686854D01*
X125662976Y-114658058D01*
X125639346Y-114651936D01*
X125637921Y-114650534D01*
X125638422Y-114648598D01*
X125639848Y-114648000D01*
X125822312Y-114648000D01*
X125824044Y-114649000D01*
G37*
G36*
X123284044Y-114649000D02*
G01*
X123284044Y-114651000D01*
X123283077Y-114651848D01*
X123248490Y-114666174D01*
X123234480Y-114699998D01*
X123248553Y-114733976D01*
X123267244Y-114745128D01*
X123268219Y-114746874D01*
X123267194Y-114748591D01*
X123265646Y-114748761D01*
X123256216Y-114745941D01*
X123129202Y-114745165D01*
X123115172Y-114749175D01*
X123113231Y-114748689D01*
X123112682Y-114746767D01*
X123113378Y-114745686D01*
X123141665Y-114723226D01*
X123145841Y-114686854D01*
X123122976Y-114658058D01*
X123099346Y-114651936D01*
X123097921Y-114650534D01*
X123098422Y-114648598D01*
X123099848Y-114648000D01*
X123282312Y-114648000D01*
X123284044Y-114649000D01*
G37*
G36*
X125751293Y-109172378D02*
G01*
X125752000Y-109173904D01*
X125752000Y-109586356D01*
X125751000Y-109588088D01*
X125749000Y-109588088D01*
X125748152Y-109587121D01*
X125733826Y-109552534D01*
X125700002Y-109538524D01*
X125665944Y-109552631D01*
X125658396Y-109563242D01*
X125656577Y-109564074D01*
X125654947Y-109562915D01*
X125654966Y-109561211D01*
X125676774Y-109516200D01*
X125697868Y-109390817D01*
X125697998Y-109380131D01*
X125679973Y-109254268D01*
X125653629Y-109196328D01*
X125653823Y-109194337D01*
X125655643Y-109193509D01*
X125656815Y-109194038D01*
X125683210Y-109218694D01*
X125719800Y-109217448D01*
X125744955Y-109190519D01*
X125748032Y-109173547D01*
X125749325Y-109172021D01*
X125751293Y-109172378D01*
G37*
M02*
