G04 #@! TF.GenerationSoftware,KiCad,Pcbnew,6.0.10-86aedd382b~118~ubuntu18.04.1*
G04 #@! TF.CreationDate,2024-01-19T11:53:34+00:00*
G04 #@! TF.ProjectId,ReTuLaReMake,52655475-4c61-4526-954d-616b652e6b69,rev?*
G04 #@! TF.SameCoordinates,Original*
G04 #@! TF.FileFunction,Soldermask,Bot*
G04 #@! TF.FilePolarity,Negative*
%FSLAX46Y46*%
G04 Gerber Fmt 4.6, Leading zero omitted, Abs format (unit mm)*
G04 Created by KiCad (PCBNEW 6.0.10-86aedd382b~118~ubuntu18.04.1) date 2024-01-19 11:53:34*
%MOMM*%
%LPD*%
G01*
G04 APERTURE LIST*
G04 Aperture macros list*
%AMRoundRect*
0 Rectangle with rounded corners*
0 $1 Rounding radius*
0 $2 $3 $4 $5 $6 $7 $8 $9 X,Y pos of 4 corners*
0 Add a 4 corners polygon primitive as box body*
4,1,4,$2,$3,$4,$5,$6,$7,$8,$9,$2,$3,0*
0 Add four circle primitives for the rounded corners*
1,1,$1+$1,$2,$3*
1,1,$1+$1,$4,$5*
1,1,$1+$1,$6,$7*
1,1,$1+$1,$8,$9*
0 Add four rect primitives between the rounded corners*
20,1,$1+$1,$2,$3,$4,$5,0*
20,1,$1+$1,$4,$5,$6,$7,0*
20,1,$1+$1,$6,$7,$8,$9,0*
20,1,$1+$1,$8,$9,$2,$3,0*%
G04 Aperture macros list end*
%ADD10RoundRect,0.050000X-0.850000X-0.850000X0.850000X-0.850000X0.850000X0.850000X-0.850000X0.850000X0*%
%ADD11O,1.800000X1.800000*%
%ADD12RoundRect,0.300000X0.350000X0.450000X-0.350000X0.450000X-0.350000X-0.450000X0.350000X-0.450000X0*%
%ADD13RoundRect,0.300000X0.450000X-0.350000X0.450000X0.350000X-0.450000X0.350000X-0.450000X-0.350000X0*%
%ADD14RoundRect,0.300000X-0.337500X-0.475000X0.337500X-0.475000X0.337500X0.475000X-0.337500X0.475000X0*%
%ADD15RoundRect,0.300000X-0.350000X-0.450000X0.350000X-0.450000X0.350000X0.450000X-0.350000X0.450000X0*%
%ADD16RoundRect,0.050000X0.800000X-0.800000X0.800000X0.800000X-0.800000X0.800000X-0.800000X-0.800000X0*%
%ADD17O,1.700000X1.700000*%
%ADD18C,1.100000*%
G04 APERTURE END LIST*
D10*
X102870000Y-114300000D03*
D11*
X105410000Y-114300000D03*
X102870000Y-116840000D03*
X105410000Y-116840000D03*
X102870000Y-119380000D03*
X105410000Y-119380000D03*
X102870000Y-121920000D03*
X105410000Y-121920000D03*
X102870000Y-124460000D03*
X105410000Y-124460000D03*
D10*
X112000000Y-119380000D03*
D12*
X128250000Y-129880000D03*
X126250000Y-129880000D03*
D13*
X125730000Y-116000000D03*
X125730000Y-114000000D03*
X133350000Y-116000000D03*
X133350000Y-114000000D03*
D14*
X115555000Y-116510000D03*
X117630000Y-116510000D03*
D13*
X123190000Y-116000000D03*
X123190000Y-114000000D03*
D15*
X126400000Y-109380000D03*
X128400000Y-109380000D03*
D13*
X138430000Y-116000000D03*
X138430000Y-114000000D03*
D12*
X124250000Y-129880000D03*
X122250000Y-129880000D03*
D13*
X130810000Y-116000000D03*
X130810000Y-114000000D03*
X135890000Y-116000000D03*
X135890000Y-114000000D03*
X120650000Y-116000000D03*
X120650000Y-114000000D03*
D12*
X117630000Y-114010000D03*
X115630000Y-114010000D03*
D16*
X151130000Y-111760000D03*
D17*
X148590000Y-111760000D03*
X146050000Y-111760000D03*
X143510000Y-111760000D03*
X140970000Y-111760000D03*
X138430000Y-111760000D03*
X135890000Y-111760000D03*
X133350000Y-111760000D03*
X130810000Y-111760000D03*
X128270000Y-111760000D03*
X125730000Y-111760000D03*
X123190000Y-111760000D03*
X120650000Y-111760000D03*
X118110000Y-111760000D03*
X115570000Y-111760000D03*
X113030000Y-111760000D03*
X110490000Y-111760000D03*
X107950000Y-111760000D03*
X105410000Y-111760000D03*
X102870000Y-111760000D03*
X102870000Y-127000000D03*
X105410000Y-127000000D03*
X107950000Y-127000000D03*
X110490000Y-127000000D03*
X113030000Y-127000000D03*
X115570000Y-127000000D03*
X118110000Y-127000000D03*
X120650000Y-127000000D03*
X123190000Y-127000000D03*
X125730000Y-127000000D03*
X128270000Y-127000000D03*
X130810000Y-127000000D03*
X133350000Y-127000000D03*
X135890000Y-127000000D03*
X138430000Y-127000000D03*
X140970000Y-127000000D03*
X143510000Y-127000000D03*
X146050000Y-127000000D03*
X148590000Y-127000000D03*
X151130000Y-127000000D03*
D13*
X128270000Y-116000000D03*
X128270000Y-114000000D03*
D18*
X125250000Y-128630000D03*
X127000000Y-118872000D03*
X125476000Y-120396000D03*
X123952000Y-118872000D03*
X138500000Y-120605000D03*
X140250000Y-117880000D03*
X127000000Y-121920000D03*
X132800000Y-129380000D03*
X119600000Y-110380000D03*
X133000000Y-123630000D03*
X117000000Y-129380000D03*
X130048000Y-121920000D03*
X129800000Y-109380000D03*
X128524000Y-120396000D03*
X115712500Y-117917500D03*
X123952000Y-121920000D03*
X115750000Y-122917500D03*
X150495000Y-123825000D03*
X130048000Y-118872000D03*
X122250000Y-119880000D03*
X114500000Y-118880000D03*
X121500000Y-121630000D03*
X122250000Y-123380000D03*
X121500000Y-124968000D03*
X123190000Y-124968000D03*
X125730000Y-124968000D03*
X128270000Y-124968000D03*
X130810000Y-124968000D03*
X132500000Y-124880000D03*
X132880000Y-120880000D03*
X132130000Y-117380000D03*
X132500000Y-115380000D03*
X130810000Y-115380000D03*
X128270000Y-115380000D03*
X125730000Y-115380000D03*
X123190000Y-115380000D03*
X121500000Y-115380000D03*
X125250000Y-109380000D03*
X105410000Y-109855000D03*
X119634000Y-108458000D03*
X128000000Y-128630000D03*
X105285000Y-129665000D03*
X122500000Y-128630000D03*
X121880000Y-117880000D03*
G36*
X115847136Y-117284000D02*
G01*
X115847136Y-117286000D01*
X115846169Y-117286848D01*
X115811582Y-117301174D01*
X115797572Y-117334998D01*
X115811611Y-117368892D01*
X115838574Y-117382188D01*
X115839685Y-117383851D01*
X115838800Y-117385645D01*
X115837428Y-117385965D01*
X115712500Y-117369517D01*
X115587344Y-117385995D01*
X115585496Y-117385230D01*
X115585235Y-117383247D01*
X115586083Y-117382280D01*
X115617540Y-117364117D01*
X115627016Y-117328753D01*
X115608673Y-117296983D01*
X115578951Y-117286894D01*
X115577632Y-117285390D01*
X115578275Y-117283496D01*
X115579594Y-117283000D01*
X115845404Y-117283000D01*
X115847136Y-117284000D01*
G37*
M02*
