%TF.GenerationSoftware,KiCad,Pcbnew,6.0.10-86aedd382b~118~ubuntu18.04.1*%
%TF.CreationDate,2024-01-19T11:53:45+00:00*%
%TF.ProjectId,ReTuLaReMake,52655475-4c61-4526-954d-616b652e6b69,rev?*%
%TF.SameCoordinates,Original*%
%TF.FileFunction,Drillmap*%
%TF.FilePolarity,Positive*%
%FSLAX45Y45*%
G04 Gerber Fmt 4.5, Leading zero omitted, Abs format (unit mm)*
G04 Created by KiCad (PCBNEW 6.0.10-86aedd382b~118~ubuntu18.04.1) date 2024-01-19 11:53:45*
%MOMM*%
%LPD*%
G01*
G04 APERTURE LIST*
%ADD10C,0.100000*%
%ADD11C,0.200000*%
G04 APERTURE END LIST*
D10*
X15400000Y-10638000D02*
X10000000Y-10638000D01*
X10000000Y-10638000D02*
X10000000Y-13238000D01*
X10000000Y-13238000D02*
X15400000Y-13238000D01*
X15400000Y-13238000D02*
X15400000Y-10638000D01*
D11*
X10252619Y-13553476D02*
X10252619Y-13353476D01*
X10300238Y-13353476D01*
X10328810Y-13363000D01*
X10347857Y-13382048D01*
X10357381Y-13401095D01*
X10366905Y-13439190D01*
X10366905Y-13467762D01*
X10357381Y-13505857D01*
X10347857Y-13524905D01*
X10328810Y-13543952D01*
X10300238Y-13553476D01*
X10252619Y-13553476D01*
X10452619Y-13553476D02*
X10452619Y-13420143D01*
X10452619Y-13458238D02*
X10462143Y-13439190D01*
X10471667Y-13429667D01*
X10490714Y-13420143D01*
X10509762Y-13420143D01*
X10576429Y-13553476D02*
X10576429Y-13420143D01*
X10576429Y-13353476D02*
X10566905Y-13363000D01*
X10576429Y-13372524D01*
X10585952Y-13363000D01*
X10576429Y-13353476D01*
X10576429Y-13372524D01*
X10700238Y-13553476D02*
X10681190Y-13543952D01*
X10671667Y-13524905D01*
X10671667Y-13353476D01*
X10805000Y-13553476D02*
X10785952Y-13543952D01*
X10776429Y-13524905D01*
X10776429Y-13353476D01*
X11033571Y-13553476D02*
X11033571Y-13353476D01*
X11100238Y-13496333D01*
X11166905Y-13353476D01*
X11166905Y-13553476D01*
X11347857Y-13553476D02*
X11347857Y-13448714D01*
X11338333Y-13429667D01*
X11319286Y-13420143D01*
X11281190Y-13420143D01*
X11262143Y-13429667D01*
X11347857Y-13543952D02*
X11328809Y-13553476D01*
X11281190Y-13553476D01*
X11262143Y-13543952D01*
X11252619Y-13524905D01*
X11252619Y-13505857D01*
X11262143Y-13486809D01*
X11281190Y-13477286D01*
X11328809Y-13477286D01*
X11347857Y-13467762D01*
X11443095Y-13420143D02*
X11443095Y-13620143D01*
X11443095Y-13429667D02*
X11462143Y-13420143D01*
X11500238Y-13420143D01*
X11519286Y-13429667D01*
X11528809Y-13439190D01*
X11538333Y-13458238D01*
X11538333Y-13515381D01*
X11528809Y-13534428D01*
X11519286Y-13543952D01*
X11500238Y-13553476D01*
X11462143Y-13553476D01*
X11443095Y-13543952D01*
X11624048Y-13534428D02*
X11633571Y-13543952D01*
X11624048Y-13553476D01*
X11614524Y-13543952D01*
X11624048Y-13534428D01*
X11624048Y-13553476D01*
X11624048Y-13429667D02*
X11633571Y-13439190D01*
X11624048Y-13448714D01*
X11614524Y-13439190D01*
X11624048Y-13429667D01*
X11624048Y-13448714D01*
M02*
