%TF.GenerationSoftware,KiCad,Pcbnew,6.0.10-86aedd382b~118~ubuntu18.04.1*%
%TF.CreationDate,2024-01-19T12:14:30+00:00*%
%TF.ProjectId,ReTuLaReMake,52655475-4c61-4526-954d-616b652e6b69,rev?*%
%TF.SameCoordinates,Original*%
%TF.FileFunction,Drillmap*%
%TF.FilePolarity,Positive*%
%FSLAX45Y45*%
G04 Gerber Fmt 4.5, Leading zero omitted, Abs format (unit mm)*
G04 Created by KiCad (PCBNEW 6.0.10-86aedd382b~118~ubuntu18.04.1) date 2024-01-19 12:14:30*
%MOMM*%
%LPD*%
G01*
G04 APERTURE LIST*
%ADD10C,0.100000*%
%ADD11C,0.200000*%
%ADD12C,0.040000*%
%ADD13C,0.080000*%
G04 APERTURE END LIST*
D10*
X15400000Y-10638000D02*
X10000000Y-10638000D01*
X10000000Y-10638000D02*
X10000000Y-13238000D01*
X10000000Y-13238000D02*
X15400000Y-13238000D01*
X15400000Y-13238000D02*
X15400000Y-10638000D01*
D11*
D12*
X10508500Y-12946500D02*
X10548500Y-12986500D01*
X10548500Y-12946500D02*
X10508500Y-12986500D01*
X10521000Y-10965500D02*
X10561000Y-11005500D01*
X10561000Y-10965500D02*
X10521000Y-11005500D01*
X11430000Y-11868000D02*
X11470000Y-11908000D01*
X11470000Y-11868000D02*
X11430000Y-11908000D01*
X11551250Y-11771750D02*
X11591250Y-11811750D01*
X11591250Y-11771750D02*
X11551250Y-11811750D01*
X11555000Y-12271750D02*
X11595000Y-12311750D01*
X11595000Y-12271750D02*
X11555000Y-12311750D01*
X11680000Y-12918000D02*
X11720000Y-12958000D01*
X11720000Y-12918000D02*
X11680000Y-12958000D01*
X11940000Y-11018000D02*
X11980000Y-11058000D01*
X11980000Y-11018000D02*
X11940000Y-11058000D01*
X11943400Y-10825800D02*
X11983400Y-10865800D01*
X11983400Y-10825800D02*
X11943400Y-10865800D01*
X12130000Y-11495000D02*
X12170000Y-11535000D01*
X12170000Y-11495000D02*
X12130000Y-11535000D01*
X12130000Y-12143000D02*
X12170000Y-12183000D01*
X12170000Y-12143000D02*
X12130000Y-12183000D01*
X12130000Y-12476800D02*
X12170000Y-12516800D01*
X12170000Y-12476800D02*
X12130000Y-12516800D01*
X12168000Y-11768000D02*
X12208000Y-11808000D01*
X12208000Y-11768000D02*
X12168000Y-11808000D01*
X12205000Y-11968000D02*
X12245000Y-12008000D01*
X12245000Y-11968000D02*
X12205000Y-12008000D01*
X12205000Y-12318000D02*
X12245000Y-12358000D01*
X12245000Y-12318000D02*
X12205000Y-12358000D01*
X12230000Y-12843000D02*
X12270000Y-12883000D01*
X12270000Y-12843000D02*
X12230000Y-12883000D01*
X12299000Y-11498900D02*
X12339000Y-11538900D01*
X12339000Y-11498900D02*
X12299000Y-11538900D01*
X12299000Y-12476800D02*
X12339000Y-12516800D01*
X12339000Y-12476800D02*
X12299000Y-12516800D01*
X12375200Y-11867200D02*
X12415200Y-11907200D01*
X12415200Y-11867200D02*
X12375200Y-11907200D01*
X12375200Y-12172000D02*
X12415200Y-12212000D01*
X12415200Y-12172000D02*
X12375200Y-12212000D01*
X12505000Y-10918000D02*
X12545000Y-10958000D01*
X12545000Y-10918000D02*
X12505000Y-10958000D01*
X12505000Y-12843000D02*
X12545000Y-12883000D01*
X12545000Y-12843000D02*
X12505000Y-12883000D01*
X12527600Y-12019600D02*
X12567600Y-12059600D01*
X12567600Y-12019600D02*
X12527600Y-12059600D01*
X12553000Y-11498900D02*
X12593000Y-11538900D01*
X12593000Y-11498900D02*
X12553000Y-11538900D01*
X12553000Y-12476800D02*
X12593000Y-12516800D01*
X12593000Y-12476800D02*
X12553000Y-12516800D01*
X12680000Y-11867200D02*
X12720000Y-11907200D01*
X12720000Y-11867200D02*
X12680000Y-11907200D01*
X12680000Y-12172000D02*
X12720000Y-12212000D01*
X12720000Y-12172000D02*
X12680000Y-12212000D01*
X12780000Y-12843000D02*
X12820000Y-12883000D01*
X12820000Y-12843000D02*
X12780000Y-12883000D01*
X12807000Y-11498900D02*
X12847000Y-11538900D01*
X12847000Y-11498900D02*
X12807000Y-11538900D01*
X12807000Y-12476800D02*
X12847000Y-12516800D01*
X12847000Y-12476800D02*
X12807000Y-12516800D01*
X12832400Y-12019600D02*
X12872400Y-12059600D01*
X12872400Y-12019600D02*
X12832400Y-12059600D01*
X12960000Y-10918000D02*
X13000000Y-10958000D01*
X13000000Y-10918000D02*
X12960000Y-10958000D01*
X12984800Y-11867200D02*
X13024800Y-11907200D01*
X13024800Y-11867200D02*
X12984800Y-11907200D01*
X12984800Y-12172000D02*
X13024800Y-12212000D01*
X13024800Y-12172000D02*
X12984800Y-12212000D01*
X13061000Y-11498900D02*
X13101000Y-11538900D01*
X13101000Y-11498900D02*
X13061000Y-11538900D01*
X13061000Y-12476800D02*
X13101000Y-12516800D01*
X13101000Y-12476800D02*
X13061000Y-12516800D01*
X13193000Y-11718000D02*
X13233000Y-11758000D01*
X13233000Y-11718000D02*
X13193000Y-11758000D01*
X13230000Y-12468000D02*
X13270000Y-12508000D01*
X13270000Y-12468000D02*
X13230000Y-12508000D01*
X13233900Y-11498900D02*
X13273900Y-11538900D01*
X13273900Y-11498900D02*
X13233900Y-11538900D01*
X13260000Y-12918000D02*
X13300000Y-12958000D01*
X13300000Y-12918000D02*
X13260000Y-12958000D01*
X13268000Y-12068000D02*
X13308000Y-12108000D01*
X13308000Y-12068000D02*
X13268000Y-12108000D01*
X13280000Y-12343000D02*
X13320000Y-12383000D01*
X13320000Y-12343000D02*
X13280000Y-12383000D01*
X13830000Y-12040500D02*
X13870000Y-12080500D01*
X13870000Y-12040500D02*
X13830000Y-12080500D01*
X14005000Y-11768000D02*
X14045000Y-11808000D01*
X14045000Y-11768000D02*
X14005000Y-11808000D01*
X15029500Y-12362500D02*
X15069500Y-12402500D01*
X15069500Y-12362500D02*
X15029500Y-12402500D01*
D13*
X10327000Y-11176000D02*
G75*
G03*
X10327000Y-11176000I-40000J0D01*
G01*
X10327000Y-12700000D02*
G75*
G03*
X10327000Y-12700000I-40000J0D01*
G01*
X10581000Y-11176000D02*
G75*
G03*
X10581000Y-11176000I-40000J0D01*
G01*
X10581000Y-12700000D02*
G75*
G03*
X10581000Y-12700000I-40000J0D01*
G01*
X10835000Y-11176000D02*
G75*
G03*
X10835000Y-11176000I-40000J0D01*
G01*
X10835000Y-12700000D02*
G75*
G03*
X10835000Y-12700000I-40000J0D01*
G01*
X11089000Y-11176000D02*
G75*
G03*
X11089000Y-11176000I-40000J0D01*
G01*
X11089000Y-12700000D02*
G75*
G03*
X11089000Y-12700000I-40000J0D01*
G01*
X11343000Y-11176000D02*
G75*
G03*
X11343000Y-11176000I-40000J0D01*
G01*
X11343000Y-12700000D02*
G75*
G03*
X11343000Y-12700000I-40000J0D01*
G01*
X11597000Y-11176000D02*
G75*
G03*
X11597000Y-11176000I-40000J0D01*
G01*
X11597000Y-12700000D02*
G75*
G03*
X11597000Y-12700000I-40000J0D01*
G01*
X11851000Y-11176000D02*
G75*
G03*
X11851000Y-11176000I-40000J0D01*
G01*
X11851000Y-12700000D02*
G75*
G03*
X11851000Y-12700000I-40000J0D01*
G01*
X13629000Y-11176000D02*
G75*
G03*
X13629000Y-11176000I-40000J0D01*
G01*
X13629000Y-12700000D02*
G75*
G03*
X13629000Y-12700000I-40000J0D01*
G01*
X13883000Y-11176000D02*
G75*
G03*
X13883000Y-11176000I-40000J0D01*
G01*
X13883000Y-12700000D02*
G75*
G03*
X13883000Y-12700000I-40000J0D01*
G01*
X14137000Y-11176000D02*
G75*
G03*
X14137000Y-11176000I-40000J0D01*
G01*
X14137000Y-12700000D02*
G75*
G03*
X14137000Y-12700000I-40000J0D01*
G01*
X14391000Y-11176000D02*
G75*
G03*
X14391000Y-11176000I-40000J0D01*
G01*
X14391000Y-12700000D02*
G75*
G03*
X14391000Y-12700000I-40000J0D01*
G01*
X14645000Y-11176000D02*
G75*
G03*
X14645000Y-11176000I-40000J0D01*
G01*
X14645000Y-12700000D02*
G75*
G03*
X14645000Y-12700000I-40000J0D01*
G01*
X14899000Y-11176000D02*
G75*
G03*
X14899000Y-11176000I-40000J0D01*
G01*
X14899000Y-12700000D02*
G75*
G03*
X14899000Y-12700000I-40000J0D01*
G01*
X15153000Y-11176000D02*
G75*
G03*
X15153000Y-11176000I-40000J0D01*
G01*
X15153000Y-12700000D02*
G75*
G03*
X15153000Y-12700000I-40000J0D01*
G01*
D10*
X10287000Y-11380000D02*
X10287000Y-11480000D01*
X10237000Y-11430000D02*
X10337000Y-11430000D01*
X10287000Y-11634000D02*
X10287000Y-11734000D01*
X10237000Y-11684000D02*
X10337000Y-11684000D01*
X10287000Y-11888000D02*
X10287000Y-11988000D01*
X10237000Y-11938000D02*
X10337000Y-11938000D01*
X10287000Y-12142000D02*
X10287000Y-12242000D01*
X10237000Y-12192000D02*
X10337000Y-12192000D01*
X10287000Y-12396000D02*
X10287000Y-12496000D01*
X10237000Y-12446000D02*
X10337000Y-12446000D01*
X10541000Y-11380000D02*
X10541000Y-11480000D01*
X10491000Y-11430000D02*
X10591000Y-11430000D01*
X10541000Y-11634000D02*
X10541000Y-11734000D01*
X10491000Y-11684000D02*
X10591000Y-11684000D01*
X10541000Y-11888000D02*
X10541000Y-11988000D01*
X10491000Y-11938000D02*
X10591000Y-11938000D01*
X10541000Y-12142000D02*
X10541000Y-12242000D01*
X10491000Y-12192000D02*
X10591000Y-12192000D01*
X10541000Y-12396000D02*
X10541000Y-12496000D01*
X10491000Y-12446000D02*
X10591000Y-12446000D01*
X11200000Y-11888000D02*
X11200000Y-11988000D01*
X11150000Y-11938000D02*
X11250000Y-11938000D01*
D11*
X10252619Y-13553476D02*
X10252619Y-13353476D01*
X10300238Y-13353476D01*
X10328810Y-13363000D01*
X10347857Y-13382048D01*
X10357381Y-13401095D01*
X10366905Y-13439190D01*
X10366905Y-13467762D01*
X10357381Y-13505857D01*
X10347857Y-13524905D01*
X10328810Y-13543952D01*
X10300238Y-13553476D01*
X10252619Y-13553476D01*
X10452619Y-13553476D02*
X10452619Y-13420143D01*
X10452619Y-13458238D02*
X10462143Y-13439190D01*
X10471667Y-13429667D01*
X10490714Y-13420143D01*
X10509762Y-13420143D01*
X10576429Y-13553476D02*
X10576429Y-13420143D01*
X10576429Y-13353476D02*
X10566905Y-13363000D01*
X10576429Y-13372524D01*
X10585952Y-13363000D01*
X10576429Y-13353476D01*
X10576429Y-13372524D01*
X10700238Y-13553476D02*
X10681190Y-13543952D01*
X10671667Y-13524905D01*
X10671667Y-13353476D01*
X10805000Y-13553476D02*
X10785952Y-13543952D01*
X10776429Y-13524905D01*
X10776429Y-13353476D01*
X11033571Y-13553476D02*
X11033571Y-13353476D01*
X11100238Y-13496333D01*
X11166905Y-13353476D01*
X11166905Y-13553476D01*
X11347857Y-13553476D02*
X11347857Y-13448714D01*
X11338333Y-13429667D01*
X11319286Y-13420143D01*
X11281190Y-13420143D01*
X11262143Y-13429667D01*
X11347857Y-13543952D02*
X11328809Y-13553476D01*
X11281190Y-13553476D01*
X11262143Y-13543952D01*
X11252619Y-13524905D01*
X11252619Y-13505857D01*
X11262143Y-13486809D01*
X11281190Y-13477286D01*
X11328809Y-13477286D01*
X11347857Y-13467762D01*
X11443095Y-13420143D02*
X11443095Y-13620143D01*
X11443095Y-13429667D02*
X11462143Y-13420143D01*
X11500238Y-13420143D01*
X11519286Y-13429667D01*
X11528809Y-13439190D01*
X11538333Y-13458238D01*
X11538333Y-13515381D01*
X11528809Y-13534428D01*
X11519286Y-13543952D01*
X11500238Y-13553476D01*
X11462143Y-13553476D01*
X11443095Y-13543952D01*
X11624048Y-13534428D02*
X11633571Y-13543952D01*
X11624048Y-13553476D01*
X11614524Y-13543952D01*
X11624048Y-13534428D01*
X11624048Y-13553476D01*
X11624048Y-13429667D02*
X11633571Y-13439190D01*
X11624048Y-13448714D01*
X11614524Y-13439190D01*
X11624048Y-13429667D01*
X11624048Y-13448714D01*
D12*
X9955000Y-13863000D02*
X9995000Y-13903000D01*
X9995000Y-13863000D02*
X9955000Y-13903000D01*
D11*
X10290714Y-13773476D02*
X10309762Y-13773476D01*
X10328810Y-13783000D01*
X10338333Y-13792524D01*
X10347857Y-13811571D01*
X10357381Y-13849667D01*
X10357381Y-13897286D01*
X10347857Y-13935381D01*
X10338333Y-13954428D01*
X10328810Y-13963952D01*
X10309762Y-13973476D01*
X10290714Y-13973476D01*
X10271667Y-13963952D01*
X10262143Y-13954428D01*
X10252619Y-13935381D01*
X10243095Y-13897286D01*
X10243095Y-13849667D01*
X10252619Y-13811571D01*
X10262143Y-13792524D01*
X10271667Y-13783000D01*
X10290714Y-13773476D01*
X10443095Y-13954428D02*
X10452619Y-13963952D01*
X10443095Y-13973476D01*
X10433571Y-13963952D01*
X10443095Y-13954428D01*
X10443095Y-13973476D01*
X10624048Y-13840143D02*
X10624048Y-13973476D01*
X10576429Y-13763952D02*
X10528810Y-13906809D01*
X10652619Y-13906809D01*
X10766905Y-13773476D02*
X10785952Y-13773476D01*
X10805000Y-13783000D01*
X10814524Y-13792524D01*
X10824048Y-13811571D01*
X10833571Y-13849667D01*
X10833571Y-13897286D01*
X10824048Y-13935381D01*
X10814524Y-13954428D01*
X10805000Y-13963952D01*
X10785952Y-13973476D01*
X10766905Y-13973476D01*
X10747857Y-13963952D01*
X10738333Y-13954428D01*
X10728810Y-13935381D01*
X10719286Y-13897286D01*
X10719286Y-13849667D01*
X10728810Y-13811571D01*
X10738333Y-13792524D01*
X10747857Y-13783000D01*
X10766905Y-13773476D01*
X10957381Y-13773476D02*
X10976429Y-13773476D01*
X10995476Y-13783000D01*
X11005000Y-13792524D01*
X11014524Y-13811571D01*
X11024048Y-13849667D01*
X11024048Y-13897286D01*
X11014524Y-13935381D01*
X11005000Y-13954428D01*
X10995476Y-13963952D01*
X10976429Y-13973476D01*
X10957381Y-13973476D01*
X10938333Y-13963952D01*
X10928810Y-13954428D01*
X10919286Y-13935381D01*
X10909762Y-13897286D01*
X10909762Y-13849667D01*
X10919286Y-13811571D01*
X10928810Y-13792524D01*
X10938333Y-13783000D01*
X10957381Y-13773476D01*
X11109762Y-13973476D02*
X11109762Y-13840143D01*
X11109762Y-13859190D02*
X11119286Y-13849667D01*
X11138333Y-13840143D01*
X11166905Y-13840143D01*
X11185952Y-13849667D01*
X11195476Y-13868714D01*
X11195476Y-13973476D01*
X11195476Y-13868714D02*
X11205000Y-13849667D01*
X11224048Y-13840143D01*
X11252619Y-13840143D01*
X11271667Y-13849667D01*
X11281190Y-13868714D01*
X11281190Y-13973476D01*
X11376428Y-13973476D02*
X11376428Y-13840143D01*
X11376428Y-13859190D02*
X11385952Y-13849667D01*
X11405000Y-13840143D01*
X11433571Y-13840143D01*
X11452619Y-13849667D01*
X11462143Y-13868714D01*
X11462143Y-13973476D01*
X11462143Y-13868714D02*
X11471667Y-13849667D01*
X11490714Y-13840143D01*
X11519286Y-13840143D01*
X11538333Y-13849667D01*
X11547857Y-13868714D01*
X11547857Y-13973476D01*
X11938333Y-13763952D02*
X11766905Y-14021095D01*
X12195476Y-13773476D02*
X12214524Y-13773476D01*
X12233571Y-13783000D01*
X12243095Y-13792524D01*
X12252619Y-13811571D01*
X12262143Y-13849667D01*
X12262143Y-13897286D01*
X12252619Y-13935381D01*
X12243095Y-13954428D01*
X12233571Y-13963952D01*
X12214524Y-13973476D01*
X12195476Y-13973476D01*
X12176428Y-13963952D01*
X12166905Y-13954428D01*
X12157381Y-13935381D01*
X12147857Y-13897286D01*
X12147857Y-13849667D01*
X12157381Y-13811571D01*
X12166905Y-13792524D01*
X12176428Y-13783000D01*
X12195476Y-13773476D01*
X12347857Y-13954428D02*
X12357381Y-13963952D01*
X12347857Y-13973476D01*
X12338333Y-13963952D01*
X12347857Y-13954428D01*
X12347857Y-13973476D01*
X12481190Y-13773476D02*
X12500238Y-13773476D01*
X12519286Y-13783000D01*
X12528809Y-13792524D01*
X12538333Y-13811571D01*
X12547857Y-13849667D01*
X12547857Y-13897286D01*
X12538333Y-13935381D01*
X12528809Y-13954428D01*
X12519286Y-13963952D01*
X12500238Y-13973476D01*
X12481190Y-13973476D01*
X12462143Y-13963952D01*
X12452619Y-13954428D01*
X12443095Y-13935381D01*
X12433571Y-13897286D01*
X12433571Y-13849667D01*
X12443095Y-13811571D01*
X12452619Y-13792524D01*
X12462143Y-13783000D01*
X12481190Y-13773476D01*
X12738333Y-13973476D02*
X12624048Y-13973476D01*
X12681190Y-13973476D02*
X12681190Y-13773476D01*
X12662143Y-13802048D01*
X12643095Y-13821095D01*
X12624048Y-13830619D01*
X12919286Y-13773476D02*
X12824048Y-13773476D01*
X12814524Y-13868714D01*
X12824048Y-13859190D01*
X12843095Y-13849667D01*
X12890714Y-13849667D01*
X12909762Y-13859190D01*
X12919286Y-13868714D01*
X12928809Y-13887762D01*
X12928809Y-13935381D01*
X12919286Y-13954428D01*
X12909762Y-13963952D01*
X12890714Y-13973476D01*
X12843095Y-13973476D01*
X12824048Y-13963952D01*
X12814524Y-13954428D01*
X12995476Y-13773476D02*
X13128809Y-13773476D01*
X13043095Y-13973476D01*
X13195476Y-13773476D02*
X13195476Y-13811571D01*
X13271667Y-13773476D02*
X13271667Y-13811571D01*
X13566905Y-14049667D02*
X13557381Y-14040143D01*
X13538333Y-14011571D01*
X13528809Y-13992524D01*
X13519286Y-13963952D01*
X13509762Y-13916333D01*
X13509762Y-13878238D01*
X13519286Y-13830619D01*
X13528809Y-13802048D01*
X13538333Y-13783000D01*
X13557381Y-13754428D01*
X13566905Y-13744905D01*
X13728809Y-13840143D02*
X13728809Y-13973476D01*
X13681190Y-13763952D02*
X13633571Y-13906809D01*
X13757381Y-13906809D01*
X13919286Y-13840143D02*
X13919286Y-13973476D01*
X13871667Y-13763952D02*
X13824048Y-13906809D01*
X13947857Y-13906809D01*
X14176428Y-13973476D02*
X14176428Y-13773476D01*
X14262143Y-13973476D02*
X14262143Y-13868714D01*
X14252619Y-13849667D01*
X14233571Y-13840143D01*
X14205000Y-13840143D01*
X14185952Y-13849667D01*
X14176428Y-13859190D01*
X14385952Y-13973476D02*
X14366905Y-13963952D01*
X14357381Y-13954428D01*
X14347857Y-13935381D01*
X14347857Y-13878238D01*
X14357381Y-13859190D01*
X14366905Y-13849667D01*
X14385952Y-13840143D01*
X14414524Y-13840143D01*
X14433571Y-13849667D01*
X14443095Y-13859190D01*
X14452619Y-13878238D01*
X14452619Y-13935381D01*
X14443095Y-13954428D01*
X14433571Y-13963952D01*
X14414524Y-13973476D01*
X14385952Y-13973476D01*
X14566905Y-13973476D02*
X14547857Y-13963952D01*
X14538333Y-13944905D01*
X14538333Y-13773476D01*
X14719286Y-13963952D02*
X14700238Y-13973476D01*
X14662143Y-13973476D01*
X14643095Y-13963952D01*
X14633571Y-13944905D01*
X14633571Y-13868714D01*
X14643095Y-13849667D01*
X14662143Y-13840143D01*
X14700238Y-13840143D01*
X14719286Y-13849667D01*
X14728809Y-13868714D01*
X14728809Y-13887762D01*
X14633571Y-13906809D01*
X14805000Y-13963952D02*
X14824048Y-13973476D01*
X14862143Y-13973476D01*
X14881190Y-13963952D01*
X14890714Y-13944905D01*
X14890714Y-13935381D01*
X14881190Y-13916333D01*
X14862143Y-13906809D01*
X14833571Y-13906809D01*
X14814524Y-13897286D01*
X14805000Y-13878238D01*
X14805000Y-13868714D01*
X14814524Y-13849667D01*
X14833571Y-13840143D01*
X14862143Y-13840143D01*
X14881190Y-13849667D01*
X14957381Y-14049667D02*
X14966905Y-14040143D01*
X14985952Y-14011571D01*
X14995476Y-13992524D01*
X15005000Y-13963952D01*
X15014524Y-13916333D01*
X15014524Y-13878238D01*
X15005000Y-13830619D01*
X14995476Y-13802048D01*
X14985952Y-13783000D01*
X14966905Y-13754428D01*
X14957381Y-13744905D01*
D13*
X9995000Y-14147000D02*
G75*
G03*
X9995000Y-14147000I-40000J0D01*
G01*
D11*
X10290714Y-14037476D02*
X10309762Y-14037476D01*
X10328810Y-14047000D01*
X10338333Y-14056524D01*
X10347857Y-14075571D01*
X10357381Y-14113667D01*
X10357381Y-14161286D01*
X10347857Y-14199381D01*
X10338333Y-14218428D01*
X10328810Y-14227952D01*
X10309762Y-14237476D01*
X10290714Y-14237476D01*
X10271667Y-14227952D01*
X10262143Y-14218428D01*
X10252619Y-14199381D01*
X10243095Y-14161286D01*
X10243095Y-14113667D01*
X10252619Y-14075571D01*
X10262143Y-14056524D01*
X10271667Y-14047000D01*
X10290714Y-14037476D01*
X10443095Y-14218428D02*
X10452619Y-14227952D01*
X10443095Y-14237476D01*
X10433571Y-14227952D01*
X10443095Y-14218428D01*
X10443095Y-14237476D01*
X10566905Y-14123190D02*
X10547857Y-14113667D01*
X10538333Y-14104143D01*
X10528810Y-14085095D01*
X10528810Y-14075571D01*
X10538333Y-14056524D01*
X10547857Y-14047000D01*
X10566905Y-14037476D01*
X10605000Y-14037476D01*
X10624048Y-14047000D01*
X10633571Y-14056524D01*
X10643095Y-14075571D01*
X10643095Y-14085095D01*
X10633571Y-14104143D01*
X10624048Y-14113667D01*
X10605000Y-14123190D01*
X10566905Y-14123190D01*
X10547857Y-14132714D01*
X10538333Y-14142238D01*
X10528810Y-14161286D01*
X10528810Y-14199381D01*
X10538333Y-14218428D01*
X10547857Y-14227952D01*
X10566905Y-14237476D01*
X10605000Y-14237476D01*
X10624048Y-14227952D01*
X10633571Y-14218428D01*
X10643095Y-14199381D01*
X10643095Y-14161286D01*
X10633571Y-14142238D01*
X10624048Y-14132714D01*
X10605000Y-14123190D01*
X10766905Y-14037476D02*
X10785952Y-14037476D01*
X10805000Y-14047000D01*
X10814524Y-14056524D01*
X10824048Y-14075571D01*
X10833571Y-14113667D01*
X10833571Y-14161286D01*
X10824048Y-14199381D01*
X10814524Y-14218428D01*
X10805000Y-14227952D01*
X10785952Y-14237476D01*
X10766905Y-14237476D01*
X10747857Y-14227952D01*
X10738333Y-14218428D01*
X10728810Y-14199381D01*
X10719286Y-14161286D01*
X10719286Y-14113667D01*
X10728810Y-14075571D01*
X10738333Y-14056524D01*
X10747857Y-14047000D01*
X10766905Y-14037476D01*
X10957381Y-14037476D02*
X10976429Y-14037476D01*
X10995476Y-14047000D01*
X11005000Y-14056524D01*
X11014524Y-14075571D01*
X11024048Y-14113667D01*
X11024048Y-14161286D01*
X11014524Y-14199381D01*
X11005000Y-14218428D01*
X10995476Y-14227952D01*
X10976429Y-14237476D01*
X10957381Y-14237476D01*
X10938333Y-14227952D01*
X10928810Y-14218428D01*
X10919286Y-14199381D01*
X10909762Y-14161286D01*
X10909762Y-14113667D01*
X10919286Y-14075571D01*
X10928810Y-14056524D01*
X10938333Y-14047000D01*
X10957381Y-14037476D01*
X11109762Y-14237476D02*
X11109762Y-14104143D01*
X11109762Y-14123190D02*
X11119286Y-14113667D01*
X11138333Y-14104143D01*
X11166905Y-14104143D01*
X11185952Y-14113667D01*
X11195476Y-14132714D01*
X11195476Y-14237476D01*
X11195476Y-14132714D02*
X11205000Y-14113667D01*
X11224048Y-14104143D01*
X11252619Y-14104143D01*
X11271667Y-14113667D01*
X11281190Y-14132714D01*
X11281190Y-14237476D01*
X11376428Y-14237476D02*
X11376428Y-14104143D01*
X11376428Y-14123190D02*
X11385952Y-14113667D01*
X11405000Y-14104143D01*
X11433571Y-14104143D01*
X11452619Y-14113667D01*
X11462143Y-14132714D01*
X11462143Y-14237476D01*
X11462143Y-14132714D02*
X11471667Y-14113667D01*
X11490714Y-14104143D01*
X11519286Y-14104143D01*
X11538333Y-14113667D01*
X11547857Y-14132714D01*
X11547857Y-14237476D01*
X11938333Y-14027952D02*
X11766905Y-14285095D01*
X12195476Y-14037476D02*
X12214524Y-14037476D01*
X12233571Y-14047000D01*
X12243095Y-14056524D01*
X12252619Y-14075571D01*
X12262143Y-14113667D01*
X12262143Y-14161286D01*
X12252619Y-14199381D01*
X12243095Y-14218428D01*
X12233571Y-14227952D01*
X12214524Y-14237476D01*
X12195476Y-14237476D01*
X12176428Y-14227952D01*
X12166905Y-14218428D01*
X12157381Y-14199381D01*
X12147857Y-14161286D01*
X12147857Y-14113667D01*
X12157381Y-14075571D01*
X12166905Y-14056524D01*
X12176428Y-14047000D01*
X12195476Y-14037476D01*
X12347857Y-14218428D02*
X12357381Y-14227952D01*
X12347857Y-14237476D01*
X12338333Y-14227952D01*
X12347857Y-14218428D01*
X12347857Y-14237476D01*
X12481190Y-14037476D02*
X12500238Y-14037476D01*
X12519286Y-14047000D01*
X12528809Y-14056524D01*
X12538333Y-14075571D01*
X12547857Y-14113667D01*
X12547857Y-14161286D01*
X12538333Y-14199381D01*
X12528809Y-14218428D01*
X12519286Y-14227952D01*
X12500238Y-14237476D01*
X12481190Y-14237476D01*
X12462143Y-14227952D01*
X12452619Y-14218428D01*
X12443095Y-14199381D01*
X12433571Y-14161286D01*
X12433571Y-14113667D01*
X12443095Y-14075571D01*
X12452619Y-14056524D01*
X12462143Y-14047000D01*
X12481190Y-14037476D01*
X12614524Y-14037476D02*
X12738333Y-14037476D01*
X12671667Y-14113667D01*
X12700238Y-14113667D01*
X12719286Y-14123190D01*
X12728809Y-14132714D01*
X12738333Y-14151762D01*
X12738333Y-14199381D01*
X12728809Y-14218428D01*
X12719286Y-14227952D01*
X12700238Y-14237476D01*
X12643095Y-14237476D01*
X12624048Y-14227952D01*
X12614524Y-14218428D01*
X12928809Y-14237476D02*
X12814524Y-14237476D01*
X12871667Y-14237476D02*
X12871667Y-14037476D01*
X12852619Y-14066048D01*
X12833571Y-14085095D01*
X12814524Y-14094619D01*
X13109762Y-14037476D02*
X13014524Y-14037476D01*
X13005000Y-14132714D01*
X13014524Y-14123190D01*
X13033571Y-14113667D01*
X13081190Y-14113667D01*
X13100238Y-14123190D01*
X13109762Y-14132714D01*
X13119286Y-14151762D01*
X13119286Y-14199381D01*
X13109762Y-14218428D01*
X13100238Y-14227952D01*
X13081190Y-14237476D01*
X13033571Y-14237476D01*
X13014524Y-14227952D01*
X13005000Y-14218428D01*
X13195476Y-14037476D02*
X13195476Y-14075571D01*
X13271667Y-14037476D02*
X13271667Y-14075571D01*
X13566905Y-14313667D02*
X13557381Y-14304143D01*
X13538333Y-14275571D01*
X13528809Y-14256524D01*
X13519286Y-14227952D01*
X13509762Y-14180333D01*
X13509762Y-14142238D01*
X13519286Y-14094619D01*
X13528809Y-14066048D01*
X13538333Y-14047000D01*
X13557381Y-14018428D01*
X13566905Y-14008905D01*
X13633571Y-14056524D02*
X13643095Y-14047000D01*
X13662143Y-14037476D01*
X13709762Y-14037476D01*
X13728809Y-14047000D01*
X13738333Y-14056524D01*
X13747857Y-14075571D01*
X13747857Y-14094619D01*
X13738333Y-14123190D01*
X13624048Y-14237476D01*
X13747857Y-14237476D01*
X13862143Y-14123190D02*
X13843095Y-14113667D01*
X13833571Y-14104143D01*
X13824048Y-14085095D01*
X13824048Y-14075571D01*
X13833571Y-14056524D01*
X13843095Y-14047000D01*
X13862143Y-14037476D01*
X13900238Y-14037476D01*
X13919286Y-14047000D01*
X13928809Y-14056524D01*
X13938333Y-14075571D01*
X13938333Y-14085095D01*
X13928809Y-14104143D01*
X13919286Y-14113667D01*
X13900238Y-14123190D01*
X13862143Y-14123190D01*
X13843095Y-14132714D01*
X13833571Y-14142238D01*
X13824048Y-14161286D01*
X13824048Y-14199381D01*
X13833571Y-14218428D01*
X13843095Y-14227952D01*
X13862143Y-14237476D01*
X13900238Y-14237476D01*
X13919286Y-14227952D01*
X13928809Y-14218428D01*
X13938333Y-14199381D01*
X13938333Y-14161286D01*
X13928809Y-14142238D01*
X13919286Y-14132714D01*
X13900238Y-14123190D01*
X14176428Y-14237476D02*
X14176428Y-14037476D01*
X14262143Y-14237476D02*
X14262143Y-14132714D01*
X14252619Y-14113667D01*
X14233571Y-14104143D01*
X14205000Y-14104143D01*
X14185952Y-14113667D01*
X14176428Y-14123190D01*
X14385952Y-14237476D02*
X14366905Y-14227952D01*
X14357381Y-14218428D01*
X14347857Y-14199381D01*
X14347857Y-14142238D01*
X14357381Y-14123190D01*
X14366905Y-14113667D01*
X14385952Y-14104143D01*
X14414524Y-14104143D01*
X14433571Y-14113667D01*
X14443095Y-14123190D01*
X14452619Y-14142238D01*
X14452619Y-14199381D01*
X14443095Y-14218428D01*
X14433571Y-14227952D01*
X14414524Y-14237476D01*
X14385952Y-14237476D01*
X14566905Y-14237476D02*
X14547857Y-14227952D01*
X14538333Y-14208905D01*
X14538333Y-14037476D01*
X14719286Y-14227952D02*
X14700238Y-14237476D01*
X14662143Y-14237476D01*
X14643095Y-14227952D01*
X14633571Y-14208905D01*
X14633571Y-14132714D01*
X14643095Y-14113667D01*
X14662143Y-14104143D01*
X14700238Y-14104143D01*
X14719286Y-14113667D01*
X14728809Y-14132714D01*
X14728809Y-14151762D01*
X14633571Y-14170809D01*
X14805000Y-14227952D02*
X14824048Y-14237476D01*
X14862143Y-14237476D01*
X14881190Y-14227952D01*
X14890714Y-14208905D01*
X14890714Y-14199381D01*
X14881190Y-14180333D01*
X14862143Y-14170809D01*
X14833571Y-14170809D01*
X14814524Y-14161286D01*
X14805000Y-14142238D01*
X14805000Y-14132714D01*
X14814524Y-14113667D01*
X14833571Y-14104143D01*
X14862143Y-14104143D01*
X14881190Y-14113667D01*
X14957381Y-14313667D02*
X14966905Y-14304143D01*
X14985952Y-14275571D01*
X14995476Y-14256524D01*
X15005000Y-14227952D01*
X15014524Y-14180333D01*
X15014524Y-14142238D01*
X15005000Y-14094619D01*
X14995476Y-14066048D01*
X14985952Y-14047000D01*
X14966905Y-14018428D01*
X14957381Y-14008905D01*
D10*
X9945000Y-14361000D02*
X9945000Y-14461000D01*
X9895000Y-14411000D02*
X9995000Y-14411000D01*
D11*
X10357381Y-14501476D02*
X10243095Y-14501476D01*
X10300238Y-14501476D02*
X10300238Y-14301476D01*
X10281190Y-14330048D01*
X10262143Y-14349095D01*
X10243095Y-14358619D01*
X10443095Y-14482428D02*
X10452619Y-14491952D01*
X10443095Y-14501476D01*
X10433571Y-14491952D01*
X10443095Y-14482428D01*
X10443095Y-14501476D01*
X10576429Y-14301476D02*
X10595476Y-14301476D01*
X10614524Y-14311000D01*
X10624048Y-14320524D01*
X10633571Y-14339571D01*
X10643095Y-14377667D01*
X10643095Y-14425286D01*
X10633571Y-14463381D01*
X10624048Y-14482428D01*
X10614524Y-14491952D01*
X10595476Y-14501476D01*
X10576429Y-14501476D01*
X10557381Y-14491952D01*
X10547857Y-14482428D01*
X10538333Y-14463381D01*
X10528810Y-14425286D01*
X10528810Y-14377667D01*
X10538333Y-14339571D01*
X10547857Y-14320524D01*
X10557381Y-14311000D01*
X10576429Y-14301476D01*
X10766905Y-14301476D02*
X10785952Y-14301476D01*
X10805000Y-14311000D01*
X10814524Y-14320524D01*
X10824048Y-14339571D01*
X10833571Y-14377667D01*
X10833571Y-14425286D01*
X10824048Y-14463381D01*
X10814524Y-14482428D01*
X10805000Y-14491952D01*
X10785952Y-14501476D01*
X10766905Y-14501476D01*
X10747857Y-14491952D01*
X10738333Y-14482428D01*
X10728810Y-14463381D01*
X10719286Y-14425286D01*
X10719286Y-14377667D01*
X10728810Y-14339571D01*
X10738333Y-14320524D01*
X10747857Y-14311000D01*
X10766905Y-14301476D01*
X10957381Y-14301476D02*
X10976429Y-14301476D01*
X10995476Y-14311000D01*
X11005000Y-14320524D01*
X11014524Y-14339571D01*
X11024048Y-14377667D01*
X11024048Y-14425286D01*
X11014524Y-14463381D01*
X11005000Y-14482428D01*
X10995476Y-14491952D01*
X10976429Y-14501476D01*
X10957381Y-14501476D01*
X10938333Y-14491952D01*
X10928810Y-14482428D01*
X10919286Y-14463381D01*
X10909762Y-14425286D01*
X10909762Y-14377667D01*
X10919286Y-14339571D01*
X10928810Y-14320524D01*
X10938333Y-14311000D01*
X10957381Y-14301476D01*
X11109762Y-14501476D02*
X11109762Y-14368143D01*
X11109762Y-14387190D02*
X11119286Y-14377667D01*
X11138333Y-14368143D01*
X11166905Y-14368143D01*
X11185952Y-14377667D01*
X11195476Y-14396714D01*
X11195476Y-14501476D01*
X11195476Y-14396714D02*
X11205000Y-14377667D01*
X11224048Y-14368143D01*
X11252619Y-14368143D01*
X11271667Y-14377667D01*
X11281190Y-14396714D01*
X11281190Y-14501476D01*
X11376428Y-14501476D02*
X11376428Y-14368143D01*
X11376428Y-14387190D02*
X11385952Y-14377667D01*
X11405000Y-14368143D01*
X11433571Y-14368143D01*
X11452619Y-14377667D01*
X11462143Y-14396714D01*
X11462143Y-14501476D01*
X11462143Y-14396714D02*
X11471667Y-14377667D01*
X11490714Y-14368143D01*
X11519286Y-14368143D01*
X11538333Y-14377667D01*
X11547857Y-14396714D01*
X11547857Y-14501476D01*
X11938333Y-14291952D02*
X11766905Y-14549095D01*
X12195476Y-14301476D02*
X12214524Y-14301476D01*
X12233571Y-14311000D01*
X12243095Y-14320524D01*
X12252619Y-14339571D01*
X12262143Y-14377667D01*
X12262143Y-14425286D01*
X12252619Y-14463381D01*
X12243095Y-14482428D01*
X12233571Y-14491952D01*
X12214524Y-14501476D01*
X12195476Y-14501476D01*
X12176428Y-14491952D01*
X12166905Y-14482428D01*
X12157381Y-14463381D01*
X12147857Y-14425286D01*
X12147857Y-14377667D01*
X12157381Y-14339571D01*
X12166905Y-14320524D01*
X12176428Y-14311000D01*
X12195476Y-14301476D01*
X12347857Y-14482428D02*
X12357381Y-14491952D01*
X12347857Y-14501476D01*
X12338333Y-14491952D01*
X12347857Y-14482428D01*
X12347857Y-14501476D01*
X12481190Y-14301476D02*
X12500238Y-14301476D01*
X12519286Y-14311000D01*
X12528809Y-14320524D01*
X12538333Y-14339571D01*
X12547857Y-14377667D01*
X12547857Y-14425286D01*
X12538333Y-14463381D01*
X12528809Y-14482428D01*
X12519286Y-14491952D01*
X12500238Y-14501476D01*
X12481190Y-14501476D01*
X12462143Y-14491952D01*
X12452619Y-14482428D01*
X12443095Y-14463381D01*
X12433571Y-14425286D01*
X12433571Y-14377667D01*
X12443095Y-14339571D01*
X12452619Y-14320524D01*
X12462143Y-14311000D01*
X12481190Y-14301476D01*
X12614524Y-14301476D02*
X12738333Y-14301476D01*
X12671667Y-14377667D01*
X12700238Y-14377667D01*
X12719286Y-14387190D01*
X12728809Y-14396714D01*
X12738333Y-14415762D01*
X12738333Y-14463381D01*
X12728809Y-14482428D01*
X12719286Y-14491952D01*
X12700238Y-14501476D01*
X12643095Y-14501476D01*
X12624048Y-14491952D01*
X12614524Y-14482428D01*
X12833571Y-14501476D02*
X12871667Y-14501476D01*
X12890714Y-14491952D01*
X12900238Y-14482428D01*
X12919286Y-14453857D01*
X12928809Y-14415762D01*
X12928809Y-14339571D01*
X12919286Y-14320524D01*
X12909762Y-14311000D01*
X12890714Y-14301476D01*
X12852619Y-14301476D01*
X12833571Y-14311000D01*
X12824048Y-14320524D01*
X12814524Y-14339571D01*
X12814524Y-14387190D01*
X12824048Y-14406238D01*
X12833571Y-14415762D01*
X12852619Y-14425286D01*
X12890714Y-14425286D01*
X12909762Y-14415762D01*
X12919286Y-14406238D01*
X12928809Y-14387190D01*
X13100238Y-14368143D02*
X13100238Y-14501476D01*
X13052619Y-14291952D02*
X13005000Y-14434809D01*
X13128809Y-14434809D01*
X13195476Y-14301476D02*
X13195476Y-14339571D01*
X13271667Y-14301476D02*
X13271667Y-14339571D01*
X13566905Y-14577667D02*
X13557381Y-14568143D01*
X13538333Y-14539571D01*
X13528809Y-14520524D01*
X13519286Y-14491952D01*
X13509762Y-14444333D01*
X13509762Y-14406238D01*
X13519286Y-14358619D01*
X13528809Y-14330048D01*
X13538333Y-14311000D01*
X13557381Y-14282428D01*
X13566905Y-14272905D01*
X13747857Y-14501476D02*
X13633571Y-14501476D01*
X13690714Y-14501476D02*
X13690714Y-14301476D01*
X13671667Y-14330048D01*
X13652619Y-14349095D01*
X13633571Y-14358619D01*
X13938333Y-14501476D02*
X13824048Y-14501476D01*
X13881190Y-14501476D02*
X13881190Y-14301476D01*
X13862143Y-14330048D01*
X13843095Y-14349095D01*
X13824048Y-14358619D01*
X14176428Y-14501476D02*
X14176428Y-14301476D01*
X14262143Y-14501476D02*
X14262143Y-14396714D01*
X14252619Y-14377667D01*
X14233571Y-14368143D01*
X14205000Y-14368143D01*
X14185952Y-14377667D01*
X14176428Y-14387190D01*
X14385952Y-14501476D02*
X14366905Y-14491952D01*
X14357381Y-14482428D01*
X14347857Y-14463381D01*
X14347857Y-14406238D01*
X14357381Y-14387190D01*
X14366905Y-14377667D01*
X14385952Y-14368143D01*
X14414524Y-14368143D01*
X14433571Y-14377667D01*
X14443095Y-14387190D01*
X14452619Y-14406238D01*
X14452619Y-14463381D01*
X14443095Y-14482428D01*
X14433571Y-14491952D01*
X14414524Y-14501476D01*
X14385952Y-14501476D01*
X14566905Y-14501476D02*
X14547857Y-14491952D01*
X14538333Y-14472905D01*
X14538333Y-14301476D01*
X14719286Y-14491952D02*
X14700238Y-14501476D01*
X14662143Y-14501476D01*
X14643095Y-14491952D01*
X14633571Y-14472905D01*
X14633571Y-14396714D01*
X14643095Y-14377667D01*
X14662143Y-14368143D01*
X14700238Y-14368143D01*
X14719286Y-14377667D01*
X14728809Y-14396714D01*
X14728809Y-14415762D01*
X14633571Y-14434809D01*
X14805000Y-14491952D02*
X14824048Y-14501476D01*
X14862143Y-14501476D01*
X14881190Y-14491952D01*
X14890714Y-14472905D01*
X14890714Y-14463381D01*
X14881190Y-14444333D01*
X14862143Y-14434809D01*
X14833571Y-14434809D01*
X14814524Y-14425286D01*
X14805000Y-14406238D01*
X14805000Y-14396714D01*
X14814524Y-14377667D01*
X14833571Y-14368143D01*
X14862143Y-14368143D01*
X14881190Y-14377667D01*
X14957381Y-14577667D02*
X14966905Y-14568143D01*
X14985952Y-14539571D01*
X14995476Y-14520524D01*
X15005000Y-14491952D01*
X15014524Y-14444333D01*
X15014524Y-14406238D01*
X15005000Y-14358619D01*
X14995476Y-14330048D01*
X14985952Y-14311000D01*
X14966905Y-14282428D01*
X14957381Y-14272905D01*
M02*
