G04 #@! TF.GenerationSoftware,KiCad,Pcbnew,6.0.10-86aedd382b~118~ubuntu18.04.1*
G04 #@! TF.CreationDate,2024-01-19T12:45:39+00:00*
G04 #@! TF.ProjectId,ReTuLaReMake,52655475-4c61-4526-954d-616b652e6b69,rev?*
G04 #@! TF.SameCoordinates,Original*
G04 #@! TF.FileFunction,Legend,Top*
G04 #@! TF.FilePolarity,Positive*
%FSLAX46Y46*%
G04 Gerber Fmt 4.6, Leading zero omitted, Abs format (unit mm)*
G04 Created by KiCad (PCBNEW 6.0.10-86aedd382b~118~ubuntu18.04.1) date 2024-01-19 12:45:39*
%MOMM*%
%LPD*%
G01*
G04 APERTURE LIST*
G04 Aperture macros list*
%AMRoundRect*
0 Rectangle with rounded corners*
0 $1 Rounding radius*
0 $2 $3 $4 $5 $6 $7 $8 $9 X,Y pos of 4 corners*
0 Add a 4 corners polygon primitive as box body*
4,1,4,$2,$3,$4,$5,$6,$7,$8,$9,$2,$3,0*
0 Add four circle primitives for the rounded corners*
1,1,$1+$1,$2,$3*
1,1,$1+$1,$4,$5*
1,1,$1+$1,$6,$7*
1,1,$1+$1,$8,$9*
0 Add four rect primitives between the rounded corners*
20,1,$1+$1,$2,$3,$4,$5,0*
20,1,$1+$1,$4,$5,$6,$7,0*
20,1,$1+$1,$6,$7,$8,$9,0*
20,1,$1+$1,$8,$9,$2,$3,0*%
G04 Aperture macros list end*
%ADD10C,0.200000*%
%ADD11C,0.300000*%
%ADD12C,0.150000*%
%ADD13C,0.120000*%
%ADD14RoundRect,0.300000X-0.925000X0.875000X-0.925000X-0.875000X0.925000X-0.875000X0.925000X0.875000X0*%
%ADD15RoundRect,0.050000X-0.850000X-0.850000X0.850000X-0.850000X0.850000X0.850000X-0.850000X0.850000X0*%
%ADD16O,1.800000X1.800000*%
%ADD17RoundRect,0.300000X0.337500X0.475000X-0.337500X0.475000X-0.337500X-0.475000X0.337500X-0.475000X0*%
%ADD18RoundRect,0.300000X-0.475000X0.337500X-0.475000X-0.337500X0.475000X-0.337500X0.475000X0.337500X0*%
%ADD19RoundRect,0.050000X0.600000X-0.450000X0.600000X0.450000X-0.600000X0.450000X-0.600000X-0.450000X0*%
%ADD20RoundRect,0.300000X0.475000X-0.337500X0.475000X0.337500X-0.475000X0.337500X-0.475000X-0.337500X0*%
%ADD21RoundRect,0.125000X0.075000X-0.662500X0.075000X0.662500X-0.075000X0.662500X-0.075000X-0.662500X0*%
%ADD22RoundRect,0.125000X0.662500X-0.075000X0.662500X0.075000X-0.662500X0.075000X-0.662500X-0.075000X0*%
%ADD23RoundRect,0.300000X-0.337500X-0.475000X0.337500X-0.475000X0.337500X0.475000X-0.337500X0.475000X0*%
%ADD24RoundRect,0.050000X0.800000X-0.800000X0.800000X0.800000X-0.800000X0.800000X-0.800000X-0.800000X0*%
%ADD25O,1.700000X1.700000*%
%ADD26C,0.900000*%
G04 APERTURE END LIST*
D10*
G36*
X101270000Y-114346000D02*
G01*
X100508000Y-114854000D01*
X100508000Y-113838000D01*
X101270000Y-114346000D01*
G37*
X101270000Y-114346000D02*
X100508000Y-114854000D01*
X100508000Y-113838000D01*
X101270000Y-114346000D01*
G36*
X151130000Y-110236000D02*
G01*
X150622000Y-109474000D01*
X151638000Y-109474000D01*
X151130000Y-110236000D01*
G37*
X151130000Y-110236000D02*
X150622000Y-109474000D01*
X151638000Y-109474000D01*
X151130000Y-110236000D01*
D11*
X102552857Y-108928571D02*
X102052857Y-108214285D01*
X101695714Y-108928571D02*
X101695714Y-107428571D01*
X102267142Y-107428571D01*
X102410000Y-107500000D01*
X102481428Y-107571428D01*
X102552857Y-107714285D01*
X102552857Y-107928571D01*
X102481428Y-108071428D01*
X102410000Y-108142857D01*
X102267142Y-108214285D01*
X101695714Y-108214285D01*
X103767142Y-108857142D02*
X103624285Y-108928571D01*
X103338571Y-108928571D01*
X103195714Y-108857142D01*
X103124285Y-108714285D01*
X103124285Y-108142857D01*
X103195714Y-108000000D01*
X103338571Y-107928571D01*
X103624285Y-107928571D01*
X103767142Y-108000000D01*
X103838571Y-108142857D01*
X103838571Y-108285714D01*
X103124285Y-108428571D01*
X104267142Y-107428571D02*
X105124285Y-107428571D01*
X104695714Y-108928571D02*
X104695714Y-107428571D01*
X106267142Y-107928571D02*
X106267142Y-108928571D01*
X105624285Y-107928571D02*
X105624285Y-108714285D01*
X105695714Y-108857142D01*
X105838571Y-108928571D01*
X106052857Y-108928571D01*
X106195714Y-108857142D01*
X106267142Y-108785714D01*
X107695714Y-108928571D02*
X106981428Y-108928571D01*
X106981428Y-107428571D01*
X108838571Y-108928571D02*
X108838571Y-108142857D01*
X108767142Y-108000000D01*
X108624285Y-107928571D01*
X108338571Y-107928571D01*
X108195714Y-108000000D01*
X108838571Y-108857142D02*
X108695714Y-108928571D01*
X108338571Y-108928571D01*
X108195714Y-108857142D01*
X108124285Y-108714285D01*
X108124285Y-108571428D01*
X108195714Y-108428571D01*
X108338571Y-108357142D01*
X108695714Y-108357142D01*
X108838571Y-108285714D01*
X111552857Y-108928571D02*
X111052857Y-108214285D01*
X110695714Y-108928571D02*
X110695714Y-107428571D01*
X111267142Y-107428571D01*
X111410000Y-107500000D01*
X111481428Y-107571428D01*
X111552857Y-107714285D01*
X111552857Y-107928571D01*
X111481428Y-108071428D01*
X111410000Y-108142857D01*
X111267142Y-108214285D01*
X110695714Y-108214285D01*
X112767142Y-108857142D02*
X112624285Y-108928571D01*
X112338571Y-108928571D01*
X112195714Y-108857142D01*
X112124285Y-108714285D01*
X112124285Y-108142857D01*
X112195714Y-108000000D01*
X112338571Y-107928571D01*
X112624285Y-107928571D01*
X112767142Y-108000000D01*
X112838571Y-108142857D01*
X112838571Y-108285714D01*
X112124285Y-108428571D01*
X113481428Y-108928571D02*
X113481428Y-107928571D01*
X113481428Y-108071428D02*
X113552857Y-108000000D01*
X113695714Y-107928571D01*
X113910000Y-107928571D01*
X114052857Y-108000000D01*
X114124285Y-108142857D01*
X114124285Y-108928571D01*
X114124285Y-108142857D02*
X114195714Y-108000000D01*
X114338571Y-107928571D01*
X114552857Y-107928571D01*
X114695714Y-108000000D01*
X114767142Y-108142857D01*
X114767142Y-108928571D01*
X116124285Y-108928571D02*
X116124285Y-108142857D01*
X116052857Y-108000000D01*
X115910000Y-107928571D01*
X115624285Y-107928571D01*
X115481428Y-108000000D01*
X116124285Y-108857142D02*
X115981428Y-108928571D01*
X115624285Y-108928571D01*
X115481428Y-108857142D01*
X115410000Y-108714285D01*
X115410000Y-108571428D01*
X115481428Y-108428571D01*
X115624285Y-108357142D01*
X115981428Y-108357142D01*
X116124285Y-108285714D01*
X116838571Y-108928571D02*
X116838571Y-107428571D01*
X116981428Y-108357142D02*
X117410000Y-108928571D01*
X117410000Y-107928571D02*
X116838571Y-108500000D01*
X118624285Y-108857142D02*
X118481428Y-108928571D01*
X118195714Y-108928571D01*
X118052857Y-108857142D01*
X117981428Y-108714285D01*
X117981428Y-108142857D01*
X118052857Y-108000000D01*
X118195714Y-107928571D01*
X118481428Y-107928571D01*
X118624285Y-108000000D01*
X118695714Y-108142857D01*
X118695714Y-108285714D01*
X117981428Y-108428571D01*
X107306571Y-121430000D02*
X108378000Y-121430000D01*
X108592285Y-121501428D01*
X108735142Y-121644285D01*
X108806571Y-121858571D01*
X108806571Y-122001428D01*
X107306571Y-120930000D02*
X107306571Y-120072857D01*
X108806571Y-120501428D02*
X107306571Y-120501428D01*
X108378000Y-119644285D02*
X108378000Y-118930000D01*
X108806571Y-119787142D02*
X107306571Y-119287142D01*
X108806571Y-118787142D01*
X107378000Y-117501428D02*
X107306571Y-117644285D01*
X107306571Y-117858571D01*
X107378000Y-118072857D01*
X107520857Y-118215714D01*
X107663714Y-118287142D01*
X107949428Y-118358571D01*
X108163714Y-118358571D01*
X108449428Y-118287142D01*
X108592285Y-118215714D01*
X108735142Y-118072857D01*
X108806571Y-117858571D01*
X108806571Y-117715714D01*
X108735142Y-117501428D01*
X108663714Y-117430000D01*
X108163714Y-117430000D01*
X108163714Y-117715714D01*
D10*
X111257142Y-122456857D02*
X110571428Y-122456857D01*
X110914285Y-122456857D02*
X110914285Y-121256857D01*
X110800000Y-121428285D01*
X110685714Y-121542571D01*
X110571428Y-121599714D01*
X111714285Y-121371142D02*
X111771428Y-121314000D01*
X111885714Y-121256857D01*
X112171428Y-121256857D01*
X112285714Y-121314000D01*
X112342857Y-121371142D01*
X112400000Y-121485428D01*
X112400000Y-121599714D01*
X112342857Y-121771142D01*
X111657142Y-122456857D01*
X112400000Y-122456857D01*
X112742857Y-121256857D02*
X113142857Y-122456857D01*
X113542857Y-121256857D01*
X109828571Y-123760285D02*
X110228571Y-123760285D01*
X110400000Y-124388857D02*
X109828571Y-124388857D01*
X109828571Y-123188857D01*
X110400000Y-123188857D01*
X110914285Y-124388857D02*
X110914285Y-123588857D01*
X110914285Y-123817428D02*
X110971428Y-123703142D01*
X111028571Y-123646000D01*
X111142857Y-123588857D01*
X111257142Y-123588857D01*
X112171428Y-124388857D02*
X112171428Y-123760285D01*
X112114285Y-123646000D01*
X112000000Y-123588857D01*
X111771428Y-123588857D01*
X111657142Y-123646000D01*
X112171428Y-124331714D02*
X112057142Y-124388857D01*
X111771428Y-124388857D01*
X111657142Y-124331714D01*
X111600000Y-124217428D01*
X111600000Y-124103142D01*
X111657142Y-123988857D01*
X111771428Y-123931714D01*
X112057142Y-123931714D01*
X112171428Y-123874571D01*
X112685714Y-124331714D02*
X112800000Y-124388857D01*
X113028571Y-124388857D01*
X113142857Y-124331714D01*
X113200000Y-124217428D01*
X113200000Y-124160285D01*
X113142857Y-124046000D01*
X113028571Y-123988857D01*
X112857142Y-123988857D01*
X112742857Y-123931714D01*
X112685714Y-123817428D01*
X112685714Y-123760285D01*
X112742857Y-123646000D01*
X112857142Y-123588857D01*
X113028571Y-123588857D01*
X113142857Y-123646000D01*
X114171428Y-124331714D02*
X114057142Y-124388857D01*
X113828571Y-124388857D01*
X113714285Y-124331714D01*
X113657142Y-124217428D01*
X113657142Y-123760285D01*
X113714285Y-123646000D01*
X113828571Y-123588857D01*
X114057142Y-123588857D01*
X114171428Y-123646000D01*
X114228571Y-123760285D01*
X114228571Y-123874571D01*
X113657142Y-123988857D01*
D11*
X135223714Y-131344000D02*
X135152285Y-131272571D01*
X135009428Y-131058285D01*
X134938000Y-130915428D01*
X134866571Y-130701142D01*
X134795142Y-130344000D01*
X134795142Y-130058285D01*
X134866571Y-129701142D01*
X134938000Y-129486857D01*
X135009428Y-129344000D01*
X135152285Y-129129714D01*
X135223714Y-129058285D01*
X136438000Y-130701142D02*
X136295142Y-130772571D01*
X136009428Y-130772571D01*
X135866571Y-130701142D01*
X135795142Y-130629714D01*
X135723714Y-130486857D01*
X135723714Y-130058285D01*
X135795142Y-129915428D01*
X135866571Y-129844000D01*
X136009428Y-129772571D01*
X136295142Y-129772571D01*
X136438000Y-129844000D01*
X136938000Y-131344000D02*
X137009428Y-131272571D01*
X137152285Y-131058285D01*
X137223714Y-130915428D01*
X137295142Y-130701142D01*
X137366571Y-130344000D01*
X137366571Y-130058285D01*
X137295142Y-129701142D01*
X137223714Y-129486857D01*
X137152285Y-129344000D01*
X137009428Y-129129714D01*
X136938000Y-129058285D01*
X139152285Y-129415428D02*
X139223714Y-129344000D01*
X139366571Y-129272571D01*
X139723714Y-129272571D01*
X139866571Y-129344000D01*
X139938000Y-129415428D01*
X140009428Y-129558285D01*
X140009428Y-129701142D01*
X139938000Y-129915428D01*
X139080857Y-130772571D01*
X140009428Y-130772571D01*
X140938000Y-129272571D02*
X141080857Y-129272571D01*
X141223714Y-129344000D01*
X141295142Y-129415428D01*
X141366571Y-129558285D01*
X141438000Y-129844000D01*
X141438000Y-130201142D01*
X141366571Y-130486857D01*
X141295142Y-130629714D01*
X141223714Y-130701142D01*
X141080857Y-130772571D01*
X140938000Y-130772571D01*
X140795142Y-130701142D01*
X140723714Y-130629714D01*
X140652285Y-130486857D01*
X140580857Y-130201142D01*
X140580857Y-129844000D01*
X140652285Y-129558285D01*
X140723714Y-129415428D01*
X140795142Y-129344000D01*
X140938000Y-129272571D01*
X142009428Y-129415428D02*
X142080857Y-129344000D01*
X142223714Y-129272571D01*
X142580857Y-129272571D01*
X142723714Y-129344000D01*
X142795142Y-129415428D01*
X142866571Y-129558285D01*
X142866571Y-129701142D01*
X142795142Y-129915428D01*
X141938000Y-130772571D01*
X142866571Y-130772571D01*
X144152285Y-129772571D02*
X144152285Y-130772571D01*
X143795142Y-129201142D02*
X143438000Y-130272571D01*
X144366571Y-130272571D01*
X146080857Y-130772571D02*
X146080857Y-129272571D01*
X146080857Y-129986857D02*
X146938000Y-129986857D01*
X146938000Y-130772571D02*
X146938000Y-129272571D01*
X147866571Y-130772571D02*
X147723714Y-130701142D01*
X147652285Y-130629714D01*
X147580857Y-130486857D01*
X147580857Y-130058285D01*
X147652285Y-129915428D01*
X147723714Y-129844000D01*
X147866571Y-129772571D01*
X148080857Y-129772571D01*
X148223714Y-129844000D01*
X148295142Y-129915428D01*
X148366571Y-130058285D01*
X148366571Y-130486857D01*
X148295142Y-130629714D01*
X148223714Y-130701142D01*
X148080857Y-130772571D01*
X147866571Y-130772571D01*
X149652285Y-129772571D02*
X149652285Y-130986857D01*
X149580857Y-131129714D01*
X149509428Y-131201142D01*
X149366571Y-131272571D01*
X149152285Y-131272571D01*
X149009428Y-131201142D01*
X149652285Y-130701142D02*
X149509428Y-130772571D01*
X149223714Y-130772571D01*
X149080857Y-130701142D01*
X149009428Y-130629714D01*
X148938000Y-130486857D01*
X148938000Y-130058285D01*
X149009428Y-129915428D01*
X149080857Y-129844000D01*
X149223714Y-129772571D01*
X149509428Y-129772571D01*
X149652285Y-129844000D01*
X150580857Y-130772571D02*
X150438000Y-130701142D01*
X150366571Y-130558285D01*
X150366571Y-129272571D01*
X151723714Y-130701142D02*
X151580857Y-130772571D01*
X151295142Y-130772571D01*
X151152285Y-130701142D01*
X151080857Y-130558285D01*
X151080857Y-129986857D01*
X151152285Y-129844000D01*
X151295142Y-129772571D01*
X151580857Y-129772571D01*
X151723714Y-129844000D01*
X151795142Y-129986857D01*
X151795142Y-130129714D01*
X151080857Y-130272571D01*
X152223714Y-129772571D02*
X152795142Y-129772571D01*
X152438000Y-129272571D02*
X152438000Y-130558285D01*
X152509428Y-130701142D01*
X152652285Y-130772571D01*
X152795142Y-130772571D01*
D12*
X147458333Y-119747142D02*
X147410714Y-119794761D01*
X147267857Y-119842380D01*
X147172619Y-119842380D01*
X147029761Y-119794761D01*
X146934523Y-119699523D01*
X146886904Y-119604285D01*
X146839285Y-119413809D01*
X146839285Y-119270952D01*
X146886904Y-119080476D01*
X146934523Y-118985238D01*
X147029761Y-118890000D01*
X147172619Y-118842380D01*
X147267857Y-118842380D01*
X147410714Y-118890000D01*
X147458333Y-118937619D01*
X147934523Y-119842380D02*
X148125000Y-119842380D01*
X148220238Y-119794761D01*
X148267857Y-119747142D01*
X148363095Y-119604285D01*
X148410714Y-119413809D01*
X148410714Y-119032857D01*
X148363095Y-118937619D01*
X148315476Y-118890000D01*
X148220238Y-118842380D01*
X148029761Y-118842380D01*
X147934523Y-118890000D01*
X147886904Y-118937619D01*
X147839285Y-119032857D01*
X147839285Y-119270952D01*
X147886904Y-119366190D01*
X147934523Y-119413809D01*
X148029761Y-119461428D01*
X148220238Y-119461428D01*
X148315476Y-119413809D01*
X148363095Y-119366190D01*
X148410714Y-119270952D01*
X119370833Y-131417142D02*
X119323214Y-131464761D01*
X119180357Y-131512380D01*
X119085119Y-131512380D01*
X118942261Y-131464761D01*
X118847023Y-131369523D01*
X118799404Y-131274285D01*
X118751785Y-131083809D01*
X118751785Y-130940952D01*
X118799404Y-130750476D01*
X118847023Y-130655238D01*
X118942261Y-130560000D01*
X119085119Y-130512380D01*
X119180357Y-130512380D01*
X119323214Y-130560000D01*
X119370833Y-130607619D01*
X119704166Y-130512380D02*
X120323214Y-130512380D01*
X119989880Y-130893333D01*
X120132738Y-130893333D01*
X120227976Y-130940952D01*
X120275595Y-130988571D01*
X120323214Y-131083809D01*
X120323214Y-131321904D01*
X120275595Y-131417142D01*
X120227976Y-131464761D01*
X120132738Y-131512380D01*
X119847023Y-131512380D01*
X119751785Y-131464761D01*
X119704166Y-131417142D01*
X115083333Y-116987142D02*
X115035714Y-117034761D01*
X114892857Y-117082380D01*
X114797619Y-117082380D01*
X114654761Y-117034761D01*
X114559523Y-116939523D01*
X114511904Y-116844285D01*
X114464285Y-116653809D01*
X114464285Y-116510952D01*
X114511904Y-116320476D01*
X114559523Y-116225238D01*
X114654761Y-116130000D01*
X114797619Y-116082380D01*
X114892857Y-116082380D01*
X115035714Y-116130000D01*
X115083333Y-116177619D01*
X116035714Y-117082380D02*
X115464285Y-117082380D01*
X115750000Y-117082380D02*
X115750000Y-116082380D01*
X115654761Y-116225238D01*
X115559523Y-116320476D01*
X115464285Y-116368095D01*
X148791904Y-114417380D02*
X148791904Y-113417380D01*
X149030000Y-113417380D01*
X149172857Y-113465000D01*
X149268095Y-113560238D01*
X149315714Y-113655476D01*
X149363333Y-113845952D01*
X149363333Y-113988809D01*
X149315714Y-114179285D01*
X149268095Y-114274523D01*
X149172857Y-114369761D01*
X149030000Y-114417380D01*
X148791904Y-114417380D01*
X150315714Y-114417380D02*
X149744285Y-114417380D01*
X150030000Y-114417380D02*
X150030000Y-113417380D01*
X149934761Y-113560238D01*
X149839523Y-113655476D01*
X149744285Y-113703095D01*
X138583333Y-118737142D02*
X138535714Y-118784761D01*
X138392857Y-118832380D01*
X138297619Y-118832380D01*
X138154761Y-118784761D01*
X138059523Y-118689523D01*
X138011904Y-118594285D01*
X137964285Y-118403809D01*
X137964285Y-118260952D01*
X138011904Y-118070476D01*
X138059523Y-117975238D01*
X138154761Y-117880000D01*
X138297619Y-117832380D01*
X138392857Y-117832380D01*
X138535714Y-117880000D01*
X138583333Y-117927619D01*
X139440476Y-117832380D02*
X139250000Y-117832380D01*
X139154761Y-117880000D01*
X139107142Y-117927619D01*
X139011904Y-118070476D01*
X138964285Y-118260952D01*
X138964285Y-118641904D01*
X139011904Y-118737142D01*
X139059523Y-118784761D01*
X139154761Y-118832380D01*
X139345238Y-118832380D01*
X139440476Y-118784761D01*
X139488095Y-118737142D01*
X139535714Y-118641904D01*
X139535714Y-118403809D01*
X139488095Y-118308571D01*
X139440476Y-118260952D01*
X139345238Y-118213333D01*
X139154761Y-118213333D01*
X139059523Y-118260952D01*
X139011904Y-118308571D01*
X138964285Y-118403809D01*
X131870833Y-108137142D02*
X131823214Y-108184761D01*
X131680357Y-108232380D01*
X131585119Y-108232380D01*
X131442261Y-108184761D01*
X131347023Y-108089523D01*
X131299404Y-107994285D01*
X131251785Y-107803809D01*
X131251785Y-107660952D01*
X131299404Y-107470476D01*
X131347023Y-107375238D01*
X131442261Y-107280000D01*
X131585119Y-107232380D01*
X131680357Y-107232380D01*
X131823214Y-107280000D01*
X131870833Y-107327619D01*
X132204166Y-107232380D02*
X132870833Y-107232380D01*
X132442261Y-108232380D01*
X141806904Y-114417380D02*
X141806904Y-113417380D01*
X142045000Y-113417380D01*
X142187857Y-113465000D01*
X142283095Y-113560238D01*
X142330714Y-113655476D01*
X142378333Y-113845952D01*
X142378333Y-113988809D01*
X142330714Y-114179285D01*
X142283095Y-114274523D01*
X142187857Y-114369761D01*
X142045000Y-114417380D01*
X141806904Y-114417380D01*
X142759285Y-113512619D02*
X142806904Y-113465000D01*
X142902142Y-113417380D01*
X143140238Y-113417380D01*
X143235476Y-113465000D01*
X143283095Y-113512619D01*
X143330714Y-113607857D01*
X143330714Y-113703095D01*
X143283095Y-113845952D01*
X142711666Y-114417380D01*
X143330714Y-114417380D01*
X122333333Y-108137142D02*
X122285714Y-108184761D01*
X122142857Y-108232380D01*
X122047619Y-108232380D01*
X121904761Y-108184761D01*
X121809523Y-108089523D01*
X121761904Y-107994285D01*
X121714285Y-107803809D01*
X121714285Y-107660952D01*
X121761904Y-107470476D01*
X121809523Y-107375238D01*
X121904761Y-107280000D01*
X122047619Y-107232380D01*
X122142857Y-107232380D01*
X122285714Y-107280000D01*
X122333333Y-107327619D01*
X122904761Y-107660952D02*
X122809523Y-107613333D01*
X122761904Y-107565714D01*
X122714285Y-107470476D01*
X122714285Y-107422857D01*
X122761904Y-107327619D01*
X122809523Y-107280000D01*
X122904761Y-107232380D01*
X123095238Y-107232380D01*
X123190476Y-107280000D01*
X123238095Y-107327619D01*
X123285714Y-107422857D01*
X123285714Y-107470476D01*
X123238095Y-107565714D01*
X123190476Y-107613333D01*
X123095238Y-107660952D01*
X122904761Y-107660952D01*
X122809523Y-107708571D01*
X122761904Y-107756190D01*
X122714285Y-107851428D01*
X122714285Y-108041904D01*
X122761904Y-108137142D01*
X122809523Y-108184761D01*
X122904761Y-108232380D01*
X123095238Y-108232380D01*
X123190476Y-108184761D01*
X123238095Y-108137142D01*
X123285714Y-108041904D01*
X123285714Y-107851428D01*
X123238095Y-107756190D01*
X123190476Y-107708571D01*
X123095238Y-107660952D01*
X115083333Y-121987142D02*
X115035714Y-122034761D01*
X114892857Y-122082380D01*
X114797619Y-122082380D01*
X114654761Y-122034761D01*
X114559523Y-121939523D01*
X114511904Y-121844285D01*
X114464285Y-121653809D01*
X114464285Y-121510952D01*
X114511904Y-121320476D01*
X114559523Y-121225238D01*
X114654761Y-121130000D01*
X114797619Y-121082380D01*
X114892857Y-121082380D01*
X115035714Y-121130000D01*
X115083333Y-121177619D01*
X115464285Y-121177619D02*
X115511904Y-121130000D01*
X115607142Y-121082380D01*
X115845238Y-121082380D01*
X115940476Y-121130000D01*
X115988095Y-121177619D01*
X116035714Y-121272857D01*
X116035714Y-121368095D01*
X115988095Y-121510952D01*
X115416666Y-122082380D01*
X116035714Y-122082380D01*
X138583333Y-122249642D02*
X138535714Y-122297261D01*
X138392857Y-122344880D01*
X138297619Y-122344880D01*
X138154761Y-122297261D01*
X138059523Y-122202023D01*
X138011904Y-122106785D01*
X137964285Y-121916309D01*
X137964285Y-121773452D01*
X138011904Y-121582976D01*
X138059523Y-121487738D01*
X138154761Y-121392500D01*
X138297619Y-121344880D01*
X138392857Y-121344880D01*
X138535714Y-121392500D01*
X138583333Y-121440119D01*
X139488095Y-121344880D02*
X139011904Y-121344880D01*
X138964285Y-121821071D01*
X139011904Y-121773452D01*
X139107142Y-121725833D01*
X139345238Y-121725833D01*
X139440476Y-121773452D01*
X139488095Y-121821071D01*
X139535714Y-121916309D01*
X139535714Y-122154404D01*
X139488095Y-122249642D01*
X139440476Y-122297261D01*
X139345238Y-122344880D01*
X139107142Y-122344880D01*
X139011904Y-122297261D01*
X138964285Y-122249642D01*
X130333333Y-131437142D02*
X130285714Y-131484761D01*
X130142857Y-131532380D01*
X130047619Y-131532380D01*
X129904761Y-131484761D01*
X129809523Y-131389523D01*
X129761904Y-131294285D01*
X129714285Y-131103809D01*
X129714285Y-130960952D01*
X129761904Y-130770476D01*
X129809523Y-130675238D01*
X129904761Y-130580000D01*
X130047619Y-130532380D01*
X130142857Y-130532380D01*
X130285714Y-130580000D01*
X130333333Y-130627619D01*
X131190476Y-130865714D02*
X131190476Y-131532380D01*
X130952380Y-130484761D02*
X130714285Y-131199047D01*
X131333333Y-131199047D01*
D13*
X152205000Y-115455000D02*
X148785000Y-115455000D01*
X148785000Y-115455000D02*
X148785000Y-122390000D01*
X152205000Y-122390000D02*
X152205000Y-115455000D01*
X101540000Y-115570000D02*
X101540000Y-125790000D01*
X104140000Y-112970000D02*
X106740000Y-112970000D01*
X101540000Y-115570000D02*
X104140000Y-115570000D01*
X106740000Y-112970000D02*
X106740000Y-125790000D01*
X104140000Y-115570000D02*
X104140000Y-112970000D01*
X101540000Y-114300000D02*
X101540000Y-112970000D01*
X101540000Y-125790000D02*
X106740000Y-125790000D01*
X101540000Y-112970000D02*
X102870000Y-112970000D01*
X119798752Y-130115000D02*
X119276248Y-130115000D01*
X119798752Y-128645000D02*
X119276248Y-128645000D01*
X117865000Y-116618748D02*
X117865000Y-117141252D01*
X116395000Y-116618748D02*
X116395000Y-117141252D01*
X146320000Y-117565000D02*
X148320000Y-117565000D01*
X148320000Y-117565000D02*
X148320000Y-113665000D01*
X146320000Y-117565000D02*
X146320000Y-113665000D01*
X136015000Y-118141252D02*
X136015000Y-117618748D01*
X137485000Y-118141252D02*
X137485000Y-117618748D01*
X132298752Y-108645000D02*
X131776248Y-108645000D01*
X132298752Y-110115000D02*
X131776248Y-110115000D01*
X143780000Y-117565000D02*
X145780000Y-117565000D01*
X145780000Y-117565000D02*
X145780000Y-113665000D01*
X143780000Y-117565000D02*
X143780000Y-113665000D01*
X122761252Y-110115000D02*
X122238748Y-110115000D01*
X122761252Y-108645000D02*
X122238748Y-108645000D01*
X116395000Y-121618748D02*
X116395000Y-122141252D01*
X117865000Y-121618748D02*
X117865000Y-122141252D01*
X110670000Y-119380000D02*
X110670000Y-118050000D01*
X110670000Y-120650000D02*
X110670000Y-120710000D01*
X113330000Y-120650000D02*
X113330000Y-120710000D01*
X110670000Y-120650000D02*
X113330000Y-120650000D01*
X110670000Y-120710000D02*
X113330000Y-120710000D01*
X110670000Y-118050000D02*
X112000000Y-118050000D01*
X119890000Y-112970000D02*
X119890000Y-112270000D01*
X119890000Y-112270000D02*
X120590000Y-112270000D01*
X120590000Y-126490000D02*
X120590000Y-127780000D01*
X119890000Y-125790000D02*
X119890000Y-126490000D01*
X134110000Y-112270000D02*
X133410000Y-112270000D01*
X134110000Y-112970000D02*
X134110000Y-112270000D01*
X119890000Y-126490000D02*
X120590000Y-126490000D01*
X134110000Y-125790000D02*
X134110000Y-126490000D01*
X134110000Y-126490000D02*
X133410000Y-126490000D01*
X136015000Y-121903752D02*
X136015000Y-121381248D01*
X137485000Y-121903752D02*
X137485000Y-121381248D01*
X130238748Y-130115000D02*
X130761252Y-130115000D01*
X130238748Y-128645000D02*
X130761252Y-128645000D01*
%LPC*%
D14*
X150495000Y-116840000D03*
X150495000Y-121940000D03*
D15*
X102870000Y-114300000D03*
D16*
X105410000Y-114300000D03*
X102870000Y-116840000D03*
X105410000Y-116840000D03*
X102870000Y-119380000D03*
X105410000Y-119380000D03*
X102870000Y-121920000D03*
X105410000Y-121920000D03*
X102870000Y-124460000D03*
X105410000Y-124460000D03*
D17*
X120575000Y-129380000D03*
X118500000Y-129380000D03*
D18*
X117130000Y-115842500D03*
X117130000Y-117917500D03*
D19*
X147320000Y-116965000D03*
X147320000Y-113665000D03*
D20*
X136750000Y-118917500D03*
X136750000Y-116842500D03*
D17*
X133075000Y-109380000D03*
X131000000Y-109380000D03*
D19*
X144780000Y-116965000D03*
X144780000Y-113665000D03*
D17*
X123537500Y-109380000D03*
X121462500Y-109380000D03*
D18*
X117130000Y-120842500D03*
X117130000Y-122917500D03*
D15*
X112000000Y-119380000D03*
D21*
X121000000Y-127042500D03*
X121500000Y-127042500D03*
X122000000Y-127042500D03*
X122500000Y-127042500D03*
X123000000Y-127042500D03*
X123500000Y-127042500D03*
X124000000Y-127042500D03*
X124500000Y-127042500D03*
X125000000Y-127042500D03*
X125500000Y-127042500D03*
X126000000Y-127042500D03*
X126500000Y-127042500D03*
X127000000Y-127042500D03*
X127500000Y-127042500D03*
X128000000Y-127042500D03*
X128500000Y-127042500D03*
X129000000Y-127042500D03*
X129500000Y-127042500D03*
X130000000Y-127042500D03*
X130500000Y-127042500D03*
X131000000Y-127042500D03*
X131500000Y-127042500D03*
X132000000Y-127042500D03*
X132500000Y-127042500D03*
X133000000Y-127042500D03*
D22*
X134662500Y-125380000D03*
X134662500Y-124880000D03*
X134662500Y-124380000D03*
X134662500Y-123880000D03*
X134662500Y-123380000D03*
X134662500Y-122880000D03*
X134662500Y-122380000D03*
X134662500Y-121880000D03*
X134662500Y-121380000D03*
X134662500Y-120880000D03*
X134662500Y-120380000D03*
X134662500Y-119880000D03*
X134662500Y-119380000D03*
X134662500Y-118880000D03*
X134662500Y-118380000D03*
X134662500Y-117880000D03*
X134662500Y-117380000D03*
X134662500Y-116880000D03*
X134662500Y-116380000D03*
X134662500Y-115880000D03*
X134662500Y-115380000D03*
X134662500Y-114880000D03*
X134662500Y-114380000D03*
X134662500Y-113880000D03*
X134662500Y-113380000D03*
D21*
X133000000Y-111717500D03*
X132500000Y-111717500D03*
X132000000Y-111717500D03*
X131500000Y-111717500D03*
X131000000Y-111717500D03*
X130500000Y-111717500D03*
X130000000Y-111717500D03*
X129500000Y-111717500D03*
X129000000Y-111717500D03*
X128500000Y-111717500D03*
X128000000Y-111717500D03*
X127500000Y-111717500D03*
X127000000Y-111717500D03*
X126500000Y-111717500D03*
X126000000Y-111717500D03*
X125500000Y-111717500D03*
X125000000Y-111717500D03*
X124500000Y-111717500D03*
X124000000Y-111717500D03*
X123500000Y-111717500D03*
X123000000Y-111717500D03*
X122500000Y-111717500D03*
X122000000Y-111717500D03*
X121500000Y-111717500D03*
X121000000Y-111717500D03*
D22*
X119337500Y-113380000D03*
X119337500Y-113880000D03*
X119337500Y-114380000D03*
X119337500Y-114880000D03*
X119337500Y-115380000D03*
X119337500Y-115880000D03*
X119337500Y-116380000D03*
X119337500Y-116880000D03*
X119337500Y-117380000D03*
X119337500Y-117880000D03*
X119337500Y-118380000D03*
X119337500Y-118880000D03*
X119337500Y-119380000D03*
X119337500Y-119880000D03*
X119337500Y-120380000D03*
X119337500Y-120880000D03*
X119337500Y-121380000D03*
X119337500Y-121880000D03*
X119337500Y-122380000D03*
X119337500Y-122880000D03*
X119337500Y-123380000D03*
X119337500Y-123880000D03*
X119337500Y-124380000D03*
X119337500Y-124880000D03*
X119337500Y-125380000D03*
D20*
X136750000Y-122680000D03*
X136750000Y-120605000D03*
D23*
X129462500Y-129380000D03*
X131537500Y-129380000D03*
D24*
X151130000Y-111760000D03*
D25*
X148590000Y-111760000D03*
X146050000Y-111760000D03*
X143510000Y-111760000D03*
X140970000Y-111760000D03*
X138430000Y-111760000D03*
X135890000Y-111760000D03*
X118110000Y-111760000D03*
X115570000Y-111760000D03*
X113030000Y-111760000D03*
X110490000Y-111760000D03*
X107950000Y-111760000D03*
X105410000Y-111760000D03*
X102870000Y-111760000D03*
X102870000Y-127000000D03*
X105410000Y-127000000D03*
X107950000Y-127000000D03*
X110490000Y-127000000D03*
X113030000Y-127000000D03*
X115570000Y-127000000D03*
X118110000Y-127000000D03*
X135890000Y-127000000D03*
X138430000Y-127000000D03*
X140970000Y-127000000D03*
X143510000Y-127000000D03*
X146050000Y-127000000D03*
X148590000Y-127000000D03*
X151130000Y-127000000D03*
D26*
X125250000Y-128630000D03*
X127000000Y-119380000D03*
X125476000Y-120904000D03*
X123952000Y-119380000D03*
X138500000Y-120605000D03*
X140250000Y-117880000D03*
X127000000Y-122428000D03*
X132800000Y-129380000D03*
X119600000Y-110380000D03*
X133000000Y-123630000D03*
X117000000Y-129380000D03*
X130048000Y-122428000D03*
X129800000Y-109380000D03*
X128524000Y-120904000D03*
X115712500Y-117917500D03*
X123952000Y-122428000D03*
X115750000Y-122917500D03*
X150495000Y-123825000D03*
X130048000Y-119380000D03*
X122250000Y-119880000D03*
X114500000Y-118880000D03*
X121500000Y-121630000D03*
X122250000Y-123380000D03*
X121500000Y-124968000D03*
X123190000Y-124968000D03*
X125730000Y-124968000D03*
X128270000Y-124968000D03*
X130810000Y-124968000D03*
X132500000Y-124880000D03*
X132880000Y-120880000D03*
X132334000Y-117380000D03*
X132080000Y-114935000D03*
X130810000Y-117094000D03*
X128270000Y-117094000D03*
X125730000Y-117094000D03*
X123190000Y-117094000D03*
X121920000Y-115062000D03*
X125250000Y-109380000D03*
X105410000Y-109855000D03*
X119634000Y-108458000D03*
X128000000Y-128630000D03*
X105285000Y-129665000D03*
X122500000Y-128630000D03*
X121880000Y-117880000D03*
M02*
