G04 #@! TF.GenerationSoftware,KiCad,Pcbnew,6.0.10-86aedd382b~118~ubuntu18.04.1*
G04 #@! TF.CreationDate,2024-01-19T11:53:34+00:00*
G04 #@! TF.ProjectId,ReTuLaReMake,52655475-4c61-4526-954d-616b652e6b69,rev?*
G04 #@! TF.SameCoordinates,Original*
G04 #@! TF.FileFunction,Legend,Bot*
G04 #@! TF.FilePolarity,Positive*
%FSLAX46Y46*%
G04 Gerber Fmt 4.6, Leading zero omitted, Abs format (unit mm)*
G04 Created by KiCad (PCBNEW 6.0.10-86aedd382b~118~ubuntu18.04.1) date 2024-01-19 11:53:34*
%MOMM*%
%LPD*%
G01*
G04 APERTURE LIST*
G04 Aperture macros list*
%AMRoundRect*
0 Rectangle with rounded corners*
0 $1 Rounding radius*
0 $2 $3 $4 $5 $6 $7 $8 $9 X,Y pos of 4 corners*
0 Add a 4 corners polygon primitive as box body*
4,1,4,$2,$3,$4,$5,$6,$7,$8,$9,$2,$3,0*
0 Add four circle primitives for the rounded corners*
1,1,$1+$1,$2,$3*
1,1,$1+$1,$4,$5*
1,1,$1+$1,$6,$7*
1,1,$1+$1,$8,$9*
0 Add four rect primitives between the rounded corners*
20,1,$1+$1,$2,$3,$4,$5,0*
20,1,$1+$1,$4,$5,$6,$7,0*
20,1,$1+$1,$6,$7,$8,$9,0*
20,1,$1+$1,$8,$9,$2,$3,0*%
G04 Aperture macros list end*
%ADD10C,0.150000*%
%ADD11C,0.120000*%
%ADD12RoundRect,0.050000X-0.850000X-0.850000X0.850000X-0.850000X0.850000X0.850000X-0.850000X0.850000X0*%
%ADD13O,1.800000X1.800000*%
%ADD14RoundRect,0.300000X0.350000X0.450000X-0.350000X0.450000X-0.350000X-0.450000X0.350000X-0.450000X0*%
%ADD15RoundRect,0.300000X0.450000X-0.350000X0.450000X0.350000X-0.450000X0.350000X-0.450000X-0.350000X0*%
%ADD16RoundRect,0.300000X-0.337500X-0.475000X0.337500X-0.475000X0.337500X0.475000X-0.337500X0.475000X0*%
%ADD17RoundRect,0.300000X-0.350000X-0.450000X0.350000X-0.450000X0.350000X0.450000X-0.350000X0.450000X0*%
%ADD18RoundRect,0.050000X0.800000X-0.800000X0.800000X0.800000X-0.800000X0.800000X-0.800000X-0.800000X0*%
%ADD19O,1.700000X1.700000*%
%ADD20C,1.100000*%
G04 APERTURE END LIST*
D10*
X150799047Y-129772380D02*
X150799047Y-130486666D01*
X150846666Y-130629523D01*
X150941904Y-130724761D01*
X151084761Y-130772380D01*
X151180000Y-130772380D01*
X149846666Y-130772380D02*
X150322857Y-130772380D01*
X150322857Y-129772380D01*
X148941904Y-130677142D02*
X148989523Y-130724761D01*
X149132380Y-130772380D01*
X149227619Y-130772380D01*
X149370476Y-130724761D01*
X149465714Y-130629523D01*
X149513333Y-130534285D01*
X149560952Y-130343809D01*
X149560952Y-130200952D01*
X149513333Y-130010476D01*
X149465714Y-129915238D01*
X149370476Y-129820000D01*
X149227619Y-129772380D01*
X149132380Y-129772380D01*
X148989523Y-129820000D01*
X148941904Y-129867619D01*
X148227619Y-129772380D02*
X148227619Y-130486666D01*
X148275238Y-130629523D01*
X148370476Y-130724761D01*
X148513333Y-130772380D01*
X148608571Y-130772380D01*
X147275238Y-130772380D02*
X147751428Y-130772380D01*
X147751428Y-129772380D01*
X146370476Y-130677142D02*
X146418095Y-130724761D01*
X146560952Y-130772380D01*
X146656190Y-130772380D01*
X146799047Y-130724761D01*
X146894285Y-130629523D01*
X146941904Y-130534285D01*
X146989523Y-130343809D01*
X146989523Y-130200952D01*
X146941904Y-130010476D01*
X146894285Y-129915238D01*
X146799047Y-129820000D01*
X146656190Y-129772380D01*
X146560952Y-129772380D01*
X146418095Y-129820000D01*
X146370476Y-129867619D01*
X145656190Y-129772380D02*
X145656190Y-130486666D01*
X145703809Y-130629523D01*
X145799047Y-130724761D01*
X145941904Y-130772380D01*
X146037142Y-130772380D01*
X144703809Y-130772380D02*
X145180000Y-130772380D01*
X145180000Y-129772380D01*
X143799047Y-130677142D02*
X143846666Y-130724761D01*
X143989523Y-130772380D01*
X144084761Y-130772380D01*
X144227619Y-130724761D01*
X144322857Y-130629523D01*
X144370476Y-130534285D01*
X144418095Y-130343809D01*
X144418095Y-130200952D01*
X144370476Y-130010476D01*
X144322857Y-129915238D01*
X144227619Y-129820000D01*
X144084761Y-129772380D01*
X143989523Y-129772380D01*
X143846666Y-129820000D01*
X143799047Y-129867619D01*
X143084761Y-129772380D02*
X143084761Y-130486666D01*
X143132380Y-130629523D01*
X143227619Y-130724761D01*
X143370476Y-130772380D01*
X143465714Y-130772380D01*
X142132380Y-130772380D02*
X142608571Y-130772380D01*
X142608571Y-129772380D01*
X141227619Y-130677142D02*
X141275238Y-130724761D01*
X141418095Y-130772380D01*
X141513333Y-130772380D01*
X141656190Y-130724761D01*
X141751428Y-130629523D01*
X141799047Y-130534285D01*
X141846666Y-130343809D01*
X141846666Y-130200952D01*
X141799047Y-130010476D01*
X141751428Y-129915238D01*
X141656190Y-129820000D01*
X141513333Y-129772380D01*
X141418095Y-129772380D01*
X141275238Y-129820000D01*
X141227619Y-129867619D01*
X131392857Y-130332380D02*
X131726190Y-129856190D01*
X131964285Y-130332380D02*
X131964285Y-129332380D01*
X131583333Y-129332380D01*
X131488095Y-129380000D01*
X131440476Y-129427619D01*
X131392857Y-129522857D01*
X131392857Y-129665714D01*
X131440476Y-129760952D01*
X131488095Y-129808571D01*
X131583333Y-129856190D01*
X131964285Y-129856190D01*
X130440476Y-130332380D02*
X131011904Y-130332380D01*
X130726190Y-130332380D02*
X130726190Y-129332380D01*
X130821428Y-129475238D01*
X130916666Y-129570476D01*
X131011904Y-129618095D01*
X129488095Y-130332380D02*
X130059523Y-130332380D01*
X129773809Y-130332380D02*
X129773809Y-129332380D01*
X129869047Y-129475238D01*
X129964285Y-129570476D01*
X130059523Y-129618095D01*
X126182380Y-117593333D02*
X125706190Y-117260000D01*
X126182380Y-117021904D02*
X125182380Y-117021904D01*
X125182380Y-117402857D01*
X125230000Y-117498095D01*
X125277619Y-117545714D01*
X125372857Y-117593333D01*
X125515714Y-117593333D01*
X125610952Y-117545714D01*
X125658571Y-117498095D01*
X125706190Y-117402857D01*
X125706190Y-117021904D01*
X125182380Y-118450476D02*
X125182380Y-118260000D01*
X125230000Y-118164761D01*
X125277619Y-118117142D01*
X125420476Y-118021904D01*
X125610952Y-117974285D01*
X125991904Y-117974285D01*
X126087142Y-118021904D01*
X126134761Y-118069523D01*
X126182380Y-118164761D01*
X126182380Y-118355238D01*
X126134761Y-118450476D01*
X126087142Y-118498095D01*
X125991904Y-118545714D01*
X125753809Y-118545714D01*
X125658571Y-118498095D01*
X125610952Y-118450476D01*
X125563333Y-118355238D01*
X125563333Y-118164761D01*
X125610952Y-118069523D01*
X125658571Y-118021904D01*
X125753809Y-117974285D01*
X133832380Y-117593333D02*
X133356190Y-117260000D01*
X133832380Y-117021904D02*
X132832380Y-117021904D01*
X132832380Y-117402857D01*
X132880000Y-117498095D01*
X132927619Y-117545714D01*
X133022857Y-117593333D01*
X133165714Y-117593333D01*
X133260952Y-117545714D01*
X133308571Y-117498095D01*
X133356190Y-117402857D01*
X133356190Y-117021904D01*
X132832380Y-117926666D02*
X132832380Y-118545714D01*
X133213333Y-118212380D01*
X133213333Y-118355238D01*
X133260952Y-118450476D01*
X133308571Y-118498095D01*
X133403809Y-118545714D01*
X133641904Y-118545714D01*
X133737142Y-118498095D01*
X133784761Y-118450476D01*
X133832380Y-118355238D01*
X133832380Y-118069523D01*
X133784761Y-117974285D01*
X133737142Y-117926666D01*
X113642857Y-116867142D02*
X113690476Y-116914761D01*
X113833333Y-116962380D01*
X113928571Y-116962380D01*
X114071428Y-116914761D01*
X114166666Y-116819523D01*
X114214285Y-116724285D01*
X114261904Y-116533809D01*
X114261904Y-116390952D01*
X114214285Y-116200476D01*
X114166666Y-116105238D01*
X114071428Y-116010000D01*
X113928571Y-115962380D01*
X113833333Y-115962380D01*
X113690476Y-116010000D01*
X113642857Y-116057619D01*
X112690476Y-116962380D02*
X113261904Y-116962380D01*
X112976190Y-116962380D02*
X112976190Y-115962380D01*
X113071428Y-116105238D01*
X113166666Y-116200476D01*
X113261904Y-116248095D01*
X112071428Y-115962380D02*
X111976190Y-115962380D01*
X111880952Y-116010000D01*
X111833333Y-116057619D01*
X111785714Y-116152857D01*
X111738095Y-116343333D01*
X111738095Y-116581428D01*
X111785714Y-116771904D01*
X111833333Y-116867142D01*
X111880952Y-116914761D01*
X111976190Y-116962380D01*
X112071428Y-116962380D01*
X112166666Y-116914761D01*
X112214285Y-116867142D01*
X112261904Y-116771904D01*
X112309523Y-116581428D01*
X112309523Y-116343333D01*
X112261904Y-116152857D01*
X112214285Y-116057619D01*
X112166666Y-116010000D01*
X112071428Y-115962380D01*
X123642380Y-117593333D02*
X123166190Y-117260000D01*
X123642380Y-117021904D02*
X122642380Y-117021904D01*
X122642380Y-117402857D01*
X122690000Y-117498095D01*
X122737619Y-117545714D01*
X122832857Y-117593333D01*
X122975714Y-117593333D01*
X123070952Y-117545714D01*
X123118571Y-117498095D01*
X123166190Y-117402857D01*
X123166190Y-117021904D01*
X122642380Y-117926666D02*
X122642380Y-118593333D01*
X123642380Y-118164761D01*
X123892857Y-109832380D02*
X124226190Y-109356190D01*
X124464285Y-109832380D02*
X124464285Y-108832380D01*
X124083333Y-108832380D01*
X123988095Y-108880000D01*
X123940476Y-108927619D01*
X123892857Y-109022857D01*
X123892857Y-109165714D01*
X123940476Y-109260952D01*
X123988095Y-109308571D01*
X124083333Y-109356190D01*
X124464285Y-109356190D01*
X122940476Y-109832380D02*
X123511904Y-109832380D01*
X123226190Y-109832380D02*
X123226190Y-108832380D01*
X123321428Y-108975238D01*
X123416666Y-109070476D01*
X123511904Y-109118095D01*
X122559523Y-108927619D02*
X122511904Y-108880000D01*
X122416666Y-108832380D01*
X122178571Y-108832380D01*
X122083333Y-108880000D01*
X122035714Y-108927619D01*
X121988095Y-109022857D01*
X121988095Y-109118095D01*
X122035714Y-109260952D01*
X122607142Y-109832380D01*
X121988095Y-109832380D01*
X138882380Y-117689333D02*
X138406190Y-117356000D01*
X138882380Y-117117904D02*
X137882380Y-117117904D01*
X137882380Y-117498857D01*
X137930000Y-117594095D01*
X137977619Y-117641714D01*
X138072857Y-117689333D01*
X138215714Y-117689333D01*
X138310952Y-117641714D01*
X138358571Y-117594095D01*
X138406190Y-117498857D01*
X138406190Y-117117904D01*
X138882380Y-118641714D02*
X138882380Y-118070285D01*
X138882380Y-118356000D02*
X137882380Y-118356000D01*
X138025238Y-118260761D01*
X138120476Y-118165523D01*
X138168095Y-118070285D01*
X120392857Y-130332380D02*
X120726190Y-129856190D01*
X120964285Y-130332380D02*
X120964285Y-129332380D01*
X120583333Y-129332380D01*
X120488095Y-129380000D01*
X120440476Y-129427619D01*
X120392857Y-129522857D01*
X120392857Y-129665714D01*
X120440476Y-129760952D01*
X120488095Y-129808571D01*
X120583333Y-129856190D01*
X120964285Y-129856190D01*
X119440476Y-130332380D02*
X120011904Y-130332380D01*
X119726190Y-130332380D02*
X119726190Y-129332380D01*
X119821428Y-129475238D01*
X119916666Y-129570476D01*
X120011904Y-129618095D01*
X118821428Y-129332380D02*
X118726190Y-129332380D01*
X118630952Y-129380000D01*
X118583333Y-129427619D01*
X118535714Y-129522857D01*
X118488095Y-129713333D01*
X118488095Y-129951428D01*
X118535714Y-130141904D01*
X118583333Y-130237142D01*
X118630952Y-130284761D01*
X118726190Y-130332380D01*
X118821428Y-130332380D01*
X118916666Y-130284761D01*
X118964285Y-130237142D01*
X119011904Y-130141904D01*
X119059523Y-129951428D01*
X119059523Y-129713333D01*
X119011904Y-129522857D01*
X118964285Y-129427619D01*
X118916666Y-129380000D01*
X118821428Y-129332380D01*
X131262380Y-117593333D02*
X130786190Y-117260000D01*
X131262380Y-117021904D02*
X130262380Y-117021904D01*
X130262380Y-117402857D01*
X130310000Y-117498095D01*
X130357619Y-117545714D01*
X130452857Y-117593333D01*
X130595714Y-117593333D01*
X130690952Y-117545714D01*
X130738571Y-117498095D01*
X130786190Y-117402857D01*
X130786190Y-117021904D01*
X130595714Y-118450476D02*
X131262380Y-118450476D01*
X130214761Y-118212380D02*
X130929047Y-117974285D01*
X130929047Y-118593333D01*
X136342380Y-117689333D02*
X135866190Y-117356000D01*
X136342380Y-117117904D02*
X135342380Y-117117904D01*
X135342380Y-117498857D01*
X135390000Y-117594095D01*
X135437619Y-117641714D01*
X135532857Y-117689333D01*
X135675714Y-117689333D01*
X135770952Y-117641714D01*
X135818571Y-117594095D01*
X135866190Y-117498857D01*
X135866190Y-117117904D01*
X135437619Y-118070285D02*
X135390000Y-118117904D01*
X135342380Y-118213142D01*
X135342380Y-118451238D01*
X135390000Y-118546476D01*
X135437619Y-118594095D01*
X135532857Y-118641714D01*
X135628095Y-118641714D01*
X135770952Y-118594095D01*
X136342380Y-118022666D01*
X136342380Y-118641714D01*
X121082380Y-117593333D02*
X120606190Y-117260000D01*
X121082380Y-117021904D02*
X120082380Y-117021904D01*
X120082380Y-117402857D01*
X120130000Y-117498095D01*
X120177619Y-117545714D01*
X120272857Y-117593333D01*
X120415714Y-117593333D01*
X120510952Y-117545714D01*
X120558571Y-117498095D01*
X120606190Y-117402857D01*
X120606190Y-117021904D01*
X120510952Y-118164761D02*
X120463333Y-118069523D01*
X120415714Y-118021904D01*
X120320476Y-117974285D01*
X120272857Y-117974285D01*
X120177619Y-118021904D01*
X120130000Y-118069523D01*
X120082380Y-118164761D01*
X120082380Y-118355238D01*
X120130000Y-118450476D01*
X120177619Y-118498095D01*
X120272857Y-118545714D01*
X120320476Y-118545714D01*
X120415714Y-118498095D01*
X120463333Y-118450476D01*
X120510952Y-118355238D01*
X120510952Y-118164761D01*
X120558571Y-118069523D01*
X120606190Y-118021904D01*
X120701428Y-117974285D01*
X120891904Y-117974285D01*
X120987142Y-118021904D01*
X121034761Y-118069523D01*
X121082380Y-118164761D01*
X121082380Y-118355238D01*
X121034761Y-118450476D01*
X120987142Y-118498095D01*
X120891904Y-118545714D01*
X120701428Y-118545714D01*
X120606190Y-118498095D01*
X120558571Y-118450476D01*
X120510952Y-118355238D01*
X113546666Y-114462380D02*
X113880000Y-113986190D01*
X114118095Y-114462380D02*
X114118095Y-113462380D01*
X113737142Y-113462380D01*
X113641904Y-113510000D01*
X113594285Y-113557619D01*
X113546666Y-113652857D01*
X113546666Y-113795714D01*
X113594285Y-113890952D01*
X113641904Y-113938571D01*
X113737142Y-113986190D01*
X114118095Y-113986190D01*
X113070476Y-114462380D02*
X112880000Y-114462380D01*
X112784761Y-114414761D01*
X112737142Y-114367142D01*
X112641904Y-114224285D01*
X112594285Y-114033809D01*
X112594285Y-113652857D01*
X112641904Y-113557619D01*
X112689523Y-113510000D01*
X112784761Y-113462380D01*
X112975238Y-113462380D01*
X113070476Y-113510000D01*
X113118095Y-113557619D01*
X113165714Y-113652857D01*
X113165714Y-113890952D01*
X113118095Y-113986190D01*
X113070476Y-114033809D01*
X112975238Y-114081428D01*
X112784761Y-114081428D01*
X112689523Y-114033809D01*
X112641904Y-113986190D01*
X112594285Y-113890952D01*
X149947380Y-119046666D02*
X150661666Y-119046666D01*
X150804523Y-118999047D01*
X150899761Y-118903809D01*
X150947380Y-118760952D01*
X150947380Y-118665714D01*
X150947380Y-120046666D02*
X150947380Y-119475238D01*
X150947380Y-119760952D02*
X149947380Y-119760952D01*
X150090238Y-119665714D01*
X150185476Y-119570476D01*
X150233095Y-119475238D01*
X128722380Y-117593333D02*
X128246190Y-117260000D01*
X128722380Y-117021904D02*
X127722380Y-117021904D01*
X127722380Y-117402857D01*
X127770000Y-117498095D01*
X127817619Y-117545714D01*
X127912857Y-117593333D01*
X128055714Y-117593333D01*
X128150952Y-117545714D01*
X128198571Y-117498095D01*
X128246190Y-117402857D01*
X128246190Y-117021904D01*
X127722380Y-118498095D02*
X127722380Y-118021904D01*
X128198571Y-117974285D01*
X128150952Y-118021904D01*
X128103333Y-118117142D01*
X128103333Y-118355238D01*
X128150952Y-118450476D01*
X128198571Y-118498095D01*
X128293809Y-118545714D01*
X128531904Y-118545714D01*
X128627142Y-118498095D01*
X128674761Y-118450476D01*
X128722380Y-118355238D01*
X128722380Y-118117142D01*
X128674761Y-118021904D01*
X128627142Y-117974285D01*
D11*
X127477064Y-130615000D02*
X127022936Y-130615000D01*
X127477064Y-129145000D02*
X127022936Y-129145000D01*
X124995000Y-115227064D02*
X124995000Y-114772936D01*
X126465000Y-115227064D02*
X126465000Y-114772936D01*
X132615000Y-115227064D02*
X132615000Y-114772936D01*
X134085000Y-115227064D02*
X134085000Y-114772936D01*
X116331248Y-117245000D02*
X116853752Y-117245000D01*
X116331248Y-115775000D02*
X116853752Y-115775000D01*
X123925000Y-115227064D02*
X123925000Y-114772936D01*
X122455000Y-115227064D02*
X122455000Y-114772936D01*
X127172936Y-108645000D02*
X127627064Y-108645000D01*
X127172936Y-110115000D02*
X127627064Y-110115000D01*
X139165000Y-115227064D02*
X139165000Y-114772936D01*
X137695000Y-115227064D02*
X137695000Y-114772936D01*
X123477064Y-130615000D02*
X123022936Y-130615000D01*
X123477064Y-129145000D02*
X123022936Y-129145000D01*
X131545000Y-115227064D02*
X131545000Y-114772936D01*
X130075000Y-115227064D02*
X130075000Y-114772936D01*
X136625000Y-115227064D02*
X136625000Y-114772936D01*
X135155000Y-115227064D02*
X135155000Y-114772936D01*
X121385000Y-115227064D02*
X121385000Y-114772936D01*
X119915000Y-115227064D02*
X119915000Y-114772936D01*
X116857064Y-113275000D02*
X116402936Y-113275000D01*
X116857064Y-114745000D02*
X116402936Y-114745000D01*
X101480000Y-128330000D02*
X101480000Y-110430000D01*
X101480000Y-110430000D02*
X152520000Y-110430000D01*
X152460000Y-125840000D02*
X101540000Y-125840000D01*
X152460000Y-120380000D02*
X152460000Y-125840000D01*
X152520000Y-128330000D02*
X101480000Y-128330000D01*
X101540000Y-125840000D02*
X101540000Y-112920000D01*
X152460000Y-112920000D02*
X152460000Y-118380000D01*
X101540000Y-112920000D02*
X152460000Y-112920000D01*
X152520000Y-110430000D02*
X152520000Y-128330000D01*
X152460000Y-118380000D02*
G75*
G03*
X152460000Y-120380000I0J-1000000D01*
G01*
X129005000Y-115227064D02*
X129005000Y-114772936D01*
X127535000Y-115227064D02*
X127535000Y-114772936D01*
%LPC*%
D12*
X102870000Y-114300000D03*
D13*
X105410000Y-114300000D03*
X102870000Y-116840000D03*
X105410000Y-116840000D03*
X102870000Y-119380000D03*
X105410000Y-119380000D03*
X102870000Y-121920000D03*
X105410000Y-121920000D03*
X102870000Y-124460000D03*
X105410000Y-124460000D03*
D12*
X112000000Y-119380000D03*
D14*
X128250000Y-129880000D03*
X126250000Y-129880000D03*
D15*
X125730000Y-116000000D03*
X125730000Y-114000000D03*
X133350000Y-116000000D03*
X133350000Y-114000000D03*
D16*
X115555000Y-116510000D03*
X117630000Y-116510000D03*
D15*
X123190000Y-116000000D03*
X123190000Y-114000000D03*
D17*
X126400000Y-109380000D03*
X128400000Y-109380000D03*
D15*
X138430000Y-116000000D03*
X138430000Y-114000000D03*
D14*
X124250000Y-129880000D03*
X122250000Y-129880000D03*
D15*
X130810000Y-116000000D03*
X130810000Y-114000000D03*
X135890000Y-116000000D03*
X135890000Y-114000000D03*
X120650000Y-116000000D03*
X120650000Y-114000000D03*
D14*
X117630000Y-114010000D03*
X115630000Y-114010000D03*
D18*
X151130000Y-111760000D03*
D19*
X148590000Y-111760000D03*
X146050000Y-111760000D03*
X143510000Y-111760000D03*
X140970000Y-111760000D03*
X138430000Y-111760000D03*
X135890000Y-111760000D03*
X133350000Y-111760000D03*
X130810000Y-111760000D03*
X128270000Y-111760000D03*
X125730000Y-111760000D03*
X123190000Y-111760000D03*
X120650000Y-111760000D03*
X118110000Y-111760000D03*
X115570000Y-111760000D03*
X113030000Y-111760000D03*
X110490000Y-111760000D03*
X107950000Y-111760000D03*
X105410000Y-111760000D03*
X102870000Y-111760000D03*
X102870000Y-127000000D03*
X105410000Y-127000000D03*
X107950000Y-127000000D03*
X110490000Y-127000000D03*
X113030000Y-127000000D03*
X115570000Y-127000000D03*
X118110000Y-127000000D03*
X120650000Y-127000000D03*
X123190000Y-127000000D03*
X125730000Y-127000000D03*
X128270000Y-127000000D03*
X130810000Y-127000000D03*
X133350000Y-127000000D03*
X135890000Y-127000000D03*
X138430000Y-127000000D03*
X140970000Y-127000000D03*
X143510000Y-127000000D03*
X146050000Y-127000000D03*
X148590000Y-127000000D03*
X151130000Y-127000000D03*
D15*
X128270000Y-116000000D03*
X128270000Y-114000000D03*
D20*
X125250000Y-128630000D03*
X127000000Y-118872000D03*
X125476000Y-120396000D03*
X123952000Y-118872000D03*
X138500000Y-120605000D03*
X140250000Y-117880000D03*
X127000000Y-121920000D03*
X132800000Y-129380000D03*
X119600000Y-110380000D03*
X133000000Y-123630000D03*
X117000000Y-129380000D03*
X130048000Y-121920000D03*
X129800000Y-109380000D03*
X128524000Y-120396000D03*
X115712500Y-117917500D03*
X123952000Y-121920000D03*
X115750000Y-122917500D03*
X150495000Y-123825000D03*
X130048000Y-118872000D03*
X122250000Y-119880000D03*
X114500000Y-118880000D03*
X121500000Y-121630000D03*
X122250000Y-123380000D03*
X121500000Y-124968000D03*
X123190000Y-124968000D03*
X125730000Y-124968000D03*
X128270000Y-124968000D03*
X130810000Y-124968000D03*
X132500000Y-124880000D03*
X132880000Y-120880000D03*
X132130000Y-117380000D03*
X132500000Y-115380000D03*
X130810000Y-115380000D03*
X128270000Y-115380000D03*
X125730000Y-115380000D03*
X123190000Y-115380000D03*
X121500000Y-115380000D03*
X125250000Y-109380000D03*
X105410000Y-109855000D03*
X119634000Y-108458000D03*
X128000000Y-128630000D03*
X105285000Y-129665000D03*
X122500000Y-128630000D03*
X121880000Y-117880000D03*
M02*
