G04 #@! TF.GenerationSoftware,KiCad,Pcbnew,6.0.10-86aedd382b~118~ubuntu18.04.1*
G04 #@! TF.CreationDate,2024-01-19T11:53:34+00:00*
G04 #@! TF.ProjectId,ReTuLaReMake,52655475-4c61-4526-954d-616b652e6b69,rev?*
G04 #@! TF.SameCoordinates,Original*
G04 #@! TF.FileFunction,Soldermask,Top*
G04 #@! TF.FilePolarity,Negative*
%FSLAX46Y46*%
G04 Gerber Fmt 4.6, Leading zero omitted, Abs format (unit mm)*
G04 Created by KiCad (PCBNEW 6.0.10-86aedd382b~118~ubuntu18.04.1) date 2024-01-19 11:53:34*
%MOMM*%
%LPD*%
G01*
G04 APERTURE LIST*
G04 Aperture macros list*
%AMRoundRect*
0 Rectangle with rounded corners*
0 $1 Rounding radius*
0 $2 $3 $4 $5 $6 $7 $8 $9 X,Y pos of 4 corners*
0 Add a 4 corners polygon primitive as box body*
4,1,4,$2,$3,$4,$5,$6,$7,$8,$9,$2,$3,0*
0 Add four circle primitives for the rounded corners*
1,1,$1+$1,$2,$3*
1,1,$1+$1,$4,$5*
1,1,$1+$1,$6,$7*
1,1,$1+$1,$8,$9*
0 Add four rect primitives between the rounded corners*
20,1,$1+$1,$2,$3,$4,$5,0*
20,1,$1+$1,$4,$5,$6,$7,0*
20,1,$1+$1,$6,$7,$8,$9,0*
20,1,$1+$1,$8,$9,$2,$3,0*%
G04 Aperture macros list end*
%ADD10RoundRect,0.300000X-0.925000X0.875000X-0.925000X-0.875000X0.925000X-0.875000X0.925000X0.875000X0*%
%ADD11RoundRect,0.050000X-0.850000X-0.850000X0.850000X-0.850000X0.850000X0.850000X-0.850000X0.850000X0*%
%ADD12O,1.800000X1.800000*%
%ADD13RoundRect,0.300000X0.337500X0.475000X-0.337500X0.475000X-0.337500X-0.475000X0.337500X-0.475000X0*%
%ADD14RoundRect,0.300000X-0.475000X0.337500X-0.475000X-0.337500X0.475000X-0.337500X0.475000X0.337500X0*%
%ADD15RoundRect,0.050000X0.600000X-0.450000X0.600000X0.450000X-0.600000X0.450000X-0.600000X-0.450000X0*%
%ADD16RoundRect,0.300000X0.475000X-0.337500X0.475000X0.337500X-0.475000X0.337500X-0.475000X-0.337500X0*%
%ADD17RoundRect,0.125000X0.075000X-0.662500X0.075000X0.662500X-0.075000X0.662500X-0.075000X-0.662500X0*%
%ADD18RoundRect,0.125000X0.662500X-0.075000X0.662500X0.075000X-0.662500X0.075000X-0.662500X-0.075000X0*%
%ADD19RoundRect,0.300000X-0.337500X-0.475000X0.337500X-0.475000X0.337500X0.475000X-0.337500X0.475000X0*%
%ADD20RoundRect,0.050000X0.800000X-0.800000X0.800000X0.800000X-0.800000X0.800000X-0.800000X-0.800000X0*%
%ADD21O,1.700000X1.700000*%
%ADD22C,1.100000*%
G04 APERTURE END LIST*
D10*
X150495000Y-116840000D03*
X150495000Y-121940000D03*
D11*
X102870000Y-114300000D03*
D12*
X105410000Y-114300000D03*
X102870000Y-116840000D03*
X105410000Y-116840000D03*
X102870000Y-119380000D03*
X105410000Y-119380000D03*
X102870000Y-121920000D03*
X105410000Y-121920000D03*
X102870000Y-124460000D03*
X105410000Y-124460000D03*
D13*
X120575000Y-129380000D03*
X118500000Y-129380000D03*
D14*
X117130000Y-115842500D03*
X117130000Y-117917500D03*
D15*
X147320000Y-116965000D03*
X147320000Y-113665000D03*
D16*
X136750000Y-118917500D03*
X136750000Y-116842500D03*
D13*
X133075000Y-109380000D03*
X131000000Y-109380000D03*
D15*
X144780000Y-116965000D03*
X144780000Y-113665000D03*
D13*
X123537500Y-109380000D03*
X121462500Y-109380000D03*
D14*
X117130000Y-120842500D03*
X117130000Y-122917500D03*
D11*
X112000000Y-119380000D03*
D17*
X121000000Y-127042500D03*
X121500000Y-127042500D03*
X122000000Y-127042500D03*
X122500000Y-127042500D03*
X123000000Y-127042500D03*
X123500000Y-127042500D03*
X124000000Y-127042500D03*
X124500000Y-127042500D03*
X125000000Y-127042500D03*
X125500000Y-127042500D03*
X126000000Y-127042500D03*
X126500000Y-127042500D03*
X127000000Y-127042500D03*
X127500000Y-127042500D03*
X128000000Y-127042500D03*
X128500000Y-127042500D03*
X129000000Y-127042500D03*
X129500000Y-127042500D03*
X130000000Y-127042500D03*
X130500000Y-127042500D03*
X131000000Y-127042500D03*
X131500000Y-127042500D03*
X132000000Y-127042500D03*
X132500000Y-127042500D03*
X133000000Y-127042500D03*
D18*
X134662500Y-125380000D03*
X134662500Y-124880000D03*
X134662500Y-124380000D03*
X134662500Y-123880000D03*
X134662500Y-123380000D03*
X134662500Y-122880000D03*
X134662500Y-122380000D03*
X134662500Y-121880000D03*
X134662500Y-121380000D03*
X134662500Y-120880000D03*
X134662500Y-120380000D03*
X134662500Y-119880000D03*
X134662500Y-119380000D03*
X134662500Y-118880000D03*
X134662500Y-118380000D03*
X134662500Y-117880000D03*
X134662500Y-117380000D03*
X134662500Y-116880000D03*
X134662500Y-116380000D03*
X134662500Y-115880000D03*
X134662500Y-115380000D03*
X134662500Y-114880000D03*
X134662500Y-114380000D03*
X134662500Y-113880000D03*
X134662500Y-113380000D03*
D17*
X133000000Y-111717500D03*
X132500000Y-111717500D03*
X132000000Y-111717500D03*
X131500000Y-111717500D03*
X131000000Y-111717500D03*
X130500000Y-111717500D03*
X130000000Y-111717500D03*
X129500000Y-111717500D03*
X129000000Y-111717500D03*
X128500000Y-111717500D03*
X128000000Y-111717500D03*
X127500000Y-111717500D03*
X127000000Y-111717500D03*
X126500000Y-111717500D03*
X126000000Y-111717500D03*
X125500000Y-111717500D03*
X125000000Y-111717500D03*
X124500000Y-111717500D03*
X124000000Y-111717500D03*
X123500000Y-111717500D03*
X123000000Y-111717500D03*
X122500000Y-111717500D03*
X122000000Y-111717500D03*
X121500000Y-111717500D03*
X121000000Y-111717500D03*
D18*
X119337500Y-113380000D03*
X119337500Y-113880000D03*
X119337500Y-114380000D03*
X119337500Y-114880000D03*
X119337500Y-115380000D03*
X119337500Y-115880000D03*
X119337500Y-116380000D03*
X119337500Y-116880000D03*
X119337500Y-117380000D03*
X119337500Y-117880000D03*
X119337500Y-118380000D03*
X119337500Y-118880000D03*
X119337500Y-119380000D03*
X119337500Y-119880000D03*
X119337500Y-120380000D03*
X119337500Y-120880000D03*
X119337500Y-121380000D03*
X119337500Y-121880000D03*
X119337500Y-122380000D03*
X119337500Y-122880000D03*
X119337500Y-123380000D03*
X119337500Y-123880000D03*
X119337500Y-124380000D03*
X119337500Y-124880000D03*
X119337500Y-125380000D03*
D16*
X136750000Y-122680000D03*
X136750000Y-120605000D03*
D19*
X129462500Y-129380000D03*
X131537500Y-129380000D03*
D20*
X151130000Y-111760000D03*
D21*
X148590000Y-111760000D03*
X146050000Y-111760000D03*
X143510000Y-111760000D03*
X140970000Y-111760000D03*
X138430000Y-111760000D03*
X135890000Y-111760000D03*
X118110000Y-111760000D03*
X115570000Y-111760000D03*
X113030000Y-111760000D03*
X110490000Y-111760000D03*
X107950000Y-111760000D03*
X105410000Y-111760000D03*
X102870000Y-111760000D03*
X102870000Y-127000000D03*
X105410000Y-127000000D03*
X107950000Y-127000000D03*
X110490000Y-127000000D03*
X113030000Y-127000000D03*
X115570000Y-127000000D03*
X118110000Y-127000000D03*
X135890000Y-127000000D03*
X138430000Y-127000000D03*
X140970000Y-127000000D03*
X143510000Y-127000000D03*
X146050000Y-127000000D03*
X148590000Y-127000000D03*
X151130000Y-127000000D03*
D22*
X125250000Y-128630000D03*
X127000000Y-118872000D03*
X125476000Y-120396000D03*
X123952000Y-118872000D03*
X138500000Y-120605000D03*
X140250000Y-117880000D03*
X127000000Y-121920000D03*
X132800000Y-129380000D03*
X119600000Y-110380000D03*
X133000000Y-123630000D03*
X117000000Y-129380000D03*
X130048000Y-121920000D03*
X129800000Y-109380000D03*
X128524000Y-120396000D03*
X115712500Y-117917500D03*
X123952000Y-121920000D03*
X115750000Y-122917500D03*
X150495000Y-123825000D03*
X130048000Y-118872000D03*
X122250000Y-119880000D03*
X114500000Y-118880000D03*
X121500000Y-121630000D03*
X122250000Y-123380000D03*
X121500000Y-124968000D03*
X123190000Y-124968000D03*
X125730000Y-124968000D03*
X128270000Y-124968000D03*
X130810000Y-124968000D03*
X132500000Y-124880000D03*
X132880000Y-120880000D03*
X132130000Y-117380000D03*
X132500000Y-115380000D03*
X130810000Y-115380000D03*
X128270000Y-115380000D03*
X125730000Y-115380000D03*
X123190000Y-115380000D03*
X121500000Y-115380000D03*
X125250000Y-109380000D03*
X105410000Y-109855000D03*
X119634000Y-108458000D03*
X128000000Y-128630000D03*
X105285000Y-129665000D03*
X122500000Y-128630000D03*
X121880000Y-117880000D03*
G36*
X132176848Y-129212953D02*
G01*
X132191174Y-129247540D01*
X132224998Y-129261550D01*
X132259027Y-129247455D01*
X132268313Y-129233558D01*
X132270107Y-129232673D01*
X132271770Y-129233784D01*
X132271824Y-129235434D01*
X132270690Y-129238172D01*
X132252017Y-129380000D01*
X132270690Y-129521828D01*
X132272250Y-129525595D01*
X132271989Y-129527578D01*
X132270141Y-129528343D01*
X132268988Y-129527774D01*
X132243305Y-129502091D01*
X132206693Y-129502091D01*
X132180650Y-129528134D01*
X132176962Y-129546674D01*
X132175643Y-129548178D01*
X132173681Y-129547788D01*
X132173000Y-129546284D01*
X132173000Y-129213718D01*
X132174000Y-129211986D01*
X132176000Y-129211986D01*
X132176848Y-129212953D01*
G37*
G36*
X116356319Y-122701428D02*
G01*
X116357000Y-122702932D01*
X116357000Y-123132065D01*
X116356000Y-123133797D01*
X116354000Y-123133797D01*
X116353152Y-123132830D01*
X116338826Y-123098243D01*
X116305002Y-123084233D01*
X116270973Y-123098328D01*
X116261689Y-123112223D01*
X116259895Y-123113108D01*
X116258232Y-123111997D01*
X116258178Y-123110347D01*
X116279310Y-123059328D01*
X116297983Y-122917500D01*
X116279310Y-122775672D01*
X116257750Y-122723621D01*
X116258011Y-122721638D01*
X116259859Y-122720873D01*
X116261012Y-122721442D01*
X116286695Y-122747125D01*
X116323307Y-122747125D01*
X116349350Y-122721082D01*
X116353038Y-122702542D01*
X116354357Y-122701038D01*
X116356319Y-122701428D01*
G37*
G36*
X130363611Y-109069068D02*
G01*
X130364500Y-109070731D01*
X130364500Y-109689266D01*
X130363500Y-109690998D01*
X130361500Y-109690998D01*
X130360652Y-109690031D01*
X130346326Y-109655444D01*
X130312502Y-109641434D01*
X130278343Y-109655583D01*
X130277926Y-109656058D01*
X130276032Y-109656702D01*
X130274528Y-109655383D01*
X130274574Y-109653975D01*
X130329310Y-109521828D01*
X130347983Y-109380000D01*
X130329310Y-109238172D01*
X130274567Y-109106008D01*
X130272216Y-109102944D01*
X130271955Y-109100961D01*
X130273542Y-109099744D01*
X130274803Y-109099995D01*
X130306257Y-109118156D01*
X130341620Y-109108680D01*
X130360106Y-109076661D01*
X130360504Y-109070600D01*
X130361615Y-109068937D01*
X130363611Y-109069068D01*
G37*
M02*
