G04 #@! TF.GenerationSoftware,KiCad,Pcbnew,6.0.10-86aedd382b~118~ubuntu18.04.1*
G04 #@! TF.CreationDate,2024-01-19T12:45:39+00:00*
G04 #@! TF.ProjectId,ReTuLaReMake,52655475-4c61-4526-954d-616b652e6b69,rev?*
G04 #@! TF.SameCoordinates,Original*
G04 #@! TF.FileFunction,Soldermask,Top*
G04 #@! TF.FilePolarity,Negative*
%FSLAX46Y46*%
G04 Gerber Fmt 4.6, Leading zero omitted, Abs format (unit mm)*
G04 Created by KiCad (PCBNEW 6.0.10-86aedd382b~118~ubuntu18.04.1) date 2024-01-19 12:45:39*
%MOMM*%
%LPD*%
G01*
G04 APERTURE LIST*
G04 Aperture macros list*
%AMRoundRect*
0 Rectangle with rounded corners*
0 $1 Rounding radius*
0 $2 $3 $4 $5 $6 $7 $8 $9 X,Y pos of 4 corners*
0 Add a 4 corners polygon primitive as box body*
4,1,4,$2,$3,$4,$5,$6,$7,$8,$9,$2,$3,0*
0 Add four circle primitives for the rounded corners*
1,1,$1+$1,$2,$3*
1,1,$1+$1,$4,$5*
1,1,$1+$1,$6,$7*
1,1,$1+$1,$8,$9*
0 Add four rect primitives between the rounded corners*
20,1,$1+$1,$2,$3,$4,$5,0*
20,1,$1+$1,$4,$5,$6,$7,0*
20,1,$1+$1,$6,$7,$8,$9,0*
20,1,$1+$1,$8,$9,$2,$3,0*%
G04 Aperture macros list end*
%ADD10RoundRect,0.300000X-0.925000X0.875000X-0.925000X-0.875000X0.925000X-0.875000X0.925000X0.875000X0*%
%ADD11RoundRect,0.050000X-0.850000X-0.850000X0.850000X-0.850000X0.850000X0.850000X-0.850000X0.850000X0*%
%ADD12O,1.800000X1.800000*%
%ADD13RoundRect,0.300000X0.337500X0.475000X-0.337500X0.475000X-0.337500X-0.475000X0.337500X-0.475000X0*%
%ADD14RoundRect,0.300000X-0.475000X0.337500X-0.475000X-0.337500X0.475000X-0.337500X0.475000X0.337500X0*%
%ADD15RoundRect,0.050000X0.600000X-0.450000X0.600000X0.450000X-0.600000X0.450000X-0.600000X-0.450000X0*%
%ADD16RoundRect,0.300000X0.475000X-0.337500X0.475000X0.337500X-0.475000X0.337500X-0.475000X-0.337500X0*%
%ADD17RoundRect,0.125000X0.075000X-0.662500X0.075000X0.662500X-0.075000X0.662500X-0.075000X-0.662500X0*%
%ADD18RoundRect,0.125000X0.662500X-0.075000X0.662500X0.075000X-0.662500X0.075000X-0.662500X-0.075000X0*%
%ADD19RoundRect,0.300000X-0.337500X-0.475000X0.337500X-0.475000X0.337500X0.475000X-0.337500X0.475000X0*%
%ADD20RoundRect,0.050000X0.800000X-0.800000X0.800000X0.800000X-0.800000X0.800000X-0.800000X-0.800000X0*%
%ADD21O,1.700000X1.700000*%
%ADD22C,0.900000*%
G04 APERTURE END LIST*
D10*
X150495000Y-116840000D03*
X150495000Y-121940000D03*
D11*
X102870000Y-114300000D03*
D12*
X105410000Y-114300000D03*
X102870000Y-116840000D03*
X105410000Y-116840000D03*
X102870000Y-119380000D03*
X105410000Y-119380000D03*
X102870000Y-121920000D03*
X105410000Y-121920000D03*
X102870000Y-124460000D03*
X105410000Y-124460000D03*
D13*
X120575000Y-129380000D03*
X118500000Y-129380000D03*
D14*
X117130000Y-115842500D03*
X117130000Y-117917500D03*
D15*
X147320000Y-116965000D03*
X147320000Y-113665000D03*
D16*
X136750000Y-118917500D03*
X136750000Y-116842500D03*
D13*
X133075000Y-109380000D03*
X131000000Y-109380000D03*
D15*
X144780000Y-116965000D03*
X144780000Y-113665000D03*
D13*
X123537500Y-109380000D03*
X121462500Y-109380000D03*
D14*
X117130000Y-120842500D03*
X117130000Y-122917500D03*
D11*
X112000000Y-119380000D03*
D17*
X121000000Y-127042500D03*
X121500000Y-127042500D03*
X122000000Y-127042500D03*
X122500000Y-127042500D03*
X123000000Y-127042500D03*
X123500000Y-127042500D03*
X124000000Y-127042500D03*
X124500000Y-127042500D03*
X125000000Y-127042500D03*
X125500000Y-127042500D03*
X126000000Y-127042500D03*
X126500000Y-127042500D03*
X127000000Y-127042500D03*
X127500000Y-127042500D03*
X128000000Y-127042500D03*
X128500000Y-127042500D03*
X129000000Y-127042500D03*
X129500000Y-127042500D03*
X130000000Y-127042500D03*
X130500000Y-127042500D03*
X131000000Y-127042500D03*
X131500000Y-127042500D03*
X132000000Y-127042500D03*
X132500000Y-127042500D03*
X133000000Y-127042500D03*
D18*
X134662500Y-125380000D03*
X134662500Y-124880000D03*
X134662500Y-124380000D03*
X134662500Y-123880000D03*
X134662500Y-123380000D03*
X134662500Y-122880000D03*
X134662500Y-122380000D03*
X134662500Y-121880000D03*
X134662500Y-121380000D03*
X134662500Y-120880000D03*
X134662500Y-120380000D03*
X134662500Y-119880000D03*
X134662500Y-119380000D03*
X134662500Y-118880000D03*
X134662500Y-118380000D03*
X134662500Y-117880000D03*
X134662500Y-117380000D03*
X134662500Y-116880000D03*
X134662500Y-116380000D03*
X134662500Y-115880000D03*
X134662500Y-115380000D03*
X134662500Y-114880000D03*
X134662500Y-114380000D03*
X134662500Y-113880000D03*
X134662500Y-113380000D03*
D17*
X133000000Y-111717500D03*
X132500000Y-111717500D03*
X132000000Y-111717500D03*
X131500000Y-111717500D03*
X131000000Y-111717500D03*
X130500000Y-111717500D03*
X130000000Y-111717500D03*
X129500000Y-111717500D03*
X129000000Y-111717500D03*
X128500000Y-111717500D03*
X128000000Y-111717500D03*
X127500000Y-111717500D03*
X127000000Y-111717500D03*
X126500000Y-111717500D03*
X126000000Y-111717500D03*
X125500000Y-111717500D03*
X125000000Y-111717500D03*
X124500000Y-111717500D03*
X124000000Y-111717500D03*
X123500000Y-111717500D03*
X123000000Y-111717500D03*
X122500000Y-111717500D03*
X122000000Y-111717500D03*
X121500000Y-111717500D03*
X121000000Y-111717500D03*
D18*
X119337500Y-113380000D03*
X119337500Y-113880000D03*
X119337500Y-114380000D03*
X119337500Y-114880000D03*
X119337500Y-115380000D03*
X119337500Y-115880000D03*
X119337500Y-116380000D03*
X119337500Y-116880000D03*
X119337500Y-117380000D03*
X119337500Y-117880000D03*
X119337500Y-118380000D03*
X119337500Y-118880000D03*
X119337500Y-119380000D03*
X119337500Y-119880000D03*
X119337500Y-120380000D03*
X119337500Y-120880000D03*
X119337500Y-121380000D03*
X119337500Y-121880000D03*
X119337500Y-122380000D03*
X119337500Y-122880000D03*
X119337500Y-123380000D03*
X119337500Y-123880000D03*
X119337500Y-124380000D03*
X119337500Y-124880000D03*
X119337500Y-125380000D03*
D16*
X136750000Y-122680000D03*
X136750000Y-120605000D03*
D19*
X129462500Y-129380000D03*
X131537500Y-129380000D03*
D20*
X151130000Y-111760000D03*
D21*
X148590000Y-111760000D03*
X146050000Y-111760000D03*
X143510000Y-111760000D03*
X140970000Y-111760000D03*
X138430000Y-111760000D03*
X135890000Y-111760000D03*
X118110000Y-111760000D03*
X115570000Y-111760000D03*
X113030000Y-111760000D03*
X110490000Y-111760000D03*
X107950000Y-111760000D03*
X105410000Y-111760000D03*
X102870000Y-111760000D03*
X102870000Y-127000000D03*
X105410000Y-127000000D03*
X107950000Y-127000000D03*
X110490000Y-127000000D03*
X113030000Y-127000000D03*
X115570000Y-127000000D03*
X118110000Y-127000000D03*
X135890000Y-127000000D03*
X138430000Y-127000000D03*
X140970000Y-127000000D03*
X143510000Y-127000000D03*
X146050000Y-127000000D03*
X148590000Y-127000000D03*
X151130000Y-127000000D03*
D22*
X125250000Y-128630000D03*
X127000000Y-119380000D03*
X125476000Y-120904000D03*
X123952000Y-119380000D03*
X138500000Y-120605000D03*
X140250000Y-117880000D03*
X127000000Y-122428000D03*
X132800000Y-129380000D03*
X119600000Y-110380000D03*
X133000000Y-123630000D03*
X117000000Y-129380000D03*
X130048000Y-122428000D03*
X129800000Y-109380000D03*
X128524000Y-120904000D03*
X115712500Y-117917500D03*
X123952000Y-122428000D03*
X115750000Y-122917500D03*
X150495000Y-123825000D03*
X130048000Y-119380000D03*
X122250000Y-119880000D03*
X114500000Y-118880000D03*
X121500000Y-121630000D03*
X122250000Y-123380000D03*
X121500000Y-124968000D03*
X123190000Y-124968000D03*
X125730000Y-124968000D03*
X128270000Y-124968000D03*
X130810000Y-124968000D03*
X132500000Y-124880000D03*
X132880000Y-120880000D03*
X132334000Y-117380000D03*
X132080000Y-114935000D03*
X130810000Y-117094000D03*
X128270000Y-117094000D03*
X125730000Y-117094000D03*
X123190000Y-117094000D03*
X121920000Y-115062000D03*
X125250000Y-109380000D03*
X105410000Y-109855000D03*
X119634000Y-108458000D03*
X128000000Y-128630000D03*
X105285000Y-129665000D03*
X122500000Y-128630000D03*
X121880000Y-117880000D03*
M02*
